<?xml version="1.0" encoding="UTF-8"?>
<svg id="Logo" xmlns="http://www.w3.org/2000/svg" viewBox="0 0 500 500">
  <defs>
    <style>
      .cls-1 {
        fill: none;
      }

      .cls-2 {
        fill: #fff;
      }
    </style>
  </defs>
  <g id="Logo-2" data-name="Logo">
    <path id="Initiator" class="cls-2" d="M500,250C500,111.928772,388.071228,0,250,0S0,111.928772,0,250c0,117.244629,80.715454,215.622192,189.605652,242.638v-166.241577h-51.552124v-76.396423h51.552124v-32.918762c0-85.091919,38.508728-124.532349,122.047913-124.532349,15.838196,0,43.167053,3.10553,54.346985,6.21106v69.253662c-5.900513-.621094-16.148804-.931641-28.881592-.931641-40.993164,0-56.831482,15.52771-56.831482,55.899841v27.018188h81.658997l-14.028931,76.396423h-67.630066v171.772583c123.785767-14.951233,219.712524-120.351013,219.712524-248.169006Z"/>
    <path id="F" class="cls-1" d="M347.917542,326.396423l14.028931-76.396423h-81.658997v-27.018188c0-40.372131,15.838318-55.899841,56.831482-55.899841,12.732788,0,22.981079,.310547,28.881592,.931641V98.759949c-11.179932-3.10553-38.508789-6.21106-54.346985-6.21106-83.539185,0-122.047913,39.44043-122.047913,124.532349v32.918762h-51.552124v76.396423h51.552124v166.241577c19.342529,4.798889,39.56781,7.362,60.394348,7.362,10.253174,0,20.357788-.631653,30.287476-1.830994v-171.772583h67.630066Z"/>
  </g>
</svg>