<?xml version="1.0" encoding="UTF-8"?>
<svg xmlns="http://www.w3.org/2000/svg" viewBox="0 0 368.503937 240.527832">
  <defs>
    <style>
      .cls-1 {
        stroke-width: .7px;
      }

      .cls-1, .cls-2 {
        fill: #007844;
      }

      .cls-1, .cls-3, .cls-4, .cls-5, .cls-6 {
        stroke: #fff;
      }

      .cls-1, .cls-7, .cls-4, .cls-5, .cls-8 {
        stroke-linejoin: round;
      }

      .cls-1, .cls-9, .cls-10 {
        fill-rule: evenodd;
      }

      .cls-11, .cls-12, .cls-5 {
        fill: #fc0;
      }

      .cls-11, .cls-7, .cls-4 {
        stroke-width: .754434px;
      }

      .cls-11, .cls-7, .cls-13, .cls-8 {
        stroke: #1a171b;
      }

      .cls-11, .cls-13 {
        stroke-miterlimit: 3.86369;
      }

      .cls-14 {
        fill: #008948;
      }

      .cls-15, .cls-6, .cls-10, .cls-8 {
        fill: #fff;
      }

      .cls-16, .cls-9 {
        fill: #e2001a;
      }

      .cls-17 {
        fill: #1a171b;
      }

      .cls-3 {
        stroke-width: 2px;
      }

      .cls-3, .cls-7, .cls-4, .cls-13 {
        fill: none;
      }

      .cls-3, .cls-6 {
        stroke-miterlimit: 3.86371;
      }

      .cls-5 {
        stroke-width: .5px;
      }

      .cls-6, .cls-8 {
        stroke-width: .31013px;
      }

      .cls-13 {
        stroke-width: .754414px;
      }
    </style>
  </defs>
  <g id="Wappen">
    <g>
      <polygon class="cls-15" points="88.619173 67.850077 47.755373 67.850077 47.755373 51.355478 66.349173 45.154278 70.323773 45.154278 88.619173 51.355478 88.619173 67.850077"/>
      <polygon class="cls-17" points="67.447773 44.866278 69.070873 44.866278 69.070873 67.971677 67.447773 67.971677 67.447773 44.866278 67.447773 44.866278"/>
      <path class="cls-12" d="M70.103573,66.031278c.0273,.0137,5.3574-13.4771,5.3574-13.4771l5.6167,14.4673,4.085-14.2968,3.6171,15.8286-1.4467-.1143-2.3828-10.6514-2.7237,10.595297-2.1274,.056103s-4.5381-12.3672-4.5952-12.3525c-.0577,.0132-4.6206,12.188-4.6792,12.2275-.0591,.0405-.7627-.0024-.7627-.0024,0,0,.0141-2.2935,.0415-2.2803h0Z"/>
      <path class="cls-12" d="M47.333073,67.869177l3.4804-15.0454,4.024,14.2114s5.4565-14.2871,5.5107-14.2837c.0537,.0039,6.2378,13.8262,6.292,13.8662,.0537,.0396,.0527,1.6621,.0527,1.6621l-1.2695-.0483-4.894-12.1807-4.459,12.0723h-2.5381s-2.6279-10.408203-2.5737-10.3687c.0537,.0401-2.2295,10.292497-2.2476,10.2959-.0186,.0035-1.3779-.1811-1.3779-.1811h0Z"/>
      <path class="cls-16" d="M70.152873,45.154278l.6279,.3384s.5611,.3448,.5796,.2896c.0181-.0547,1.0928-.187,1.2075-.2417,.1148-.0542,1.479-.138703,1.5459-.145,.0659-.0064,1.5454-.0962,1.5454-.0962l1.4488-.0479,1.1113-.0488s1.5273,.0547,1.5937,.0488c.0669-.0068,1.8355,.2412,1.8355,.2412l1.3525,.2896s1.334,.392597,1.4009,.3862c.0664-.0063,1.4492,.7251,1.4492,.7251l1.1592,1.0142,.773,1.352s.6059,3.2202,.6279,3.2852c.022,.0644-1.3042-.085-1.3042-.085l-1.0147,.2783-1.352,.0479-1.3042-.3862-1.1108,.06s-1.0332,.3325-1.063,.3262c-.0303-.0064-1.4009-.3262-1.4009-.3262h-1.1109l-1.4492,.2783-1.187-.2783s-1.2461-.102-1.228-.1084c.0185-.0063-.9658,.3374-.9658,.3374,0,0-1.0327,.1997-1.1109,.1934-.0786-.0064-1.081-.4224-1.063-.4224,.0186,0-1.0141-.1567-1.0141-.1567,0,0-.7427,.1567-.773,.1567-.0302,0,.1934-7.3057,.1934-7.3057h0Z"/>
      <path class="cls-16" d="M48.899973,49.549875l.5312-1.014197s.9478-1.105,1.0142-1.1597c.0664-.0542,.6582-.6216,.7724-.6758,.1153-.0546,1.19-.7182,1.208-.6762,.0181,.042,1.5459-.5313,1.5459-.5313l1.5455-.3867s1.5273-.1865,1.5942-.1934c.0659-.0058,1.7207-.0415,1.8354-.0478,.1143-.0064,2.0586,.1025,2.125,.0962,.0669-.0064,1.6724,.1514,1.7388,.145,.0669-.0063,1.2559,.1455,1.2559,.1455l1.6425,.1441,.9659-.3858,.0966,7.6314-.9179-.1812s-1.0323,.0913-1.1109,.1333c-.0786,.0415-1.4975,.1929-1.4975,.1929l-1.4004-.4346-1.1113,.1934-1.1104,.2895s-.936-.2353-.9663-.1933-1.5942-.2896-1.5942-.2896c0,0-1.2735,.2476-1.2554,.2896s-1.3223-.1812-1.353-.1812c-.0298,0-1.4668-.0059-1.4488-.06,.0186-.0547-1.9018,.585897-1.8354,.5312,.0664-.0552-1.0147-.3379-1.0147-.3379l-1.2075-.2417-.8462,.0801,.7984-2.881803h0Z"/>
      <polygon class="cls-7" points="56.002973 68.201177 60.576173 55.939978 65.714873 68.198277 56.002973 68.201177 56.002973 68.201177"/>
      <polyline class="cls-7" points="88.755873 68.438977 85.162173 52.523478 81.175373 67.255875 75.530273 52.503978 70.103573 66.031278"/>
      <polyline class="cls-7" points="87.375073 68.490777 85.027373 57.457578 82.254473 68.438977"/>
      <polyline class="cls-7" points="80.148973 68.438977 75.598173 55.939978 70.764673 68.313977"/>
      <path class="cls-4" d="M48.964873,49.971178c.0342-.0332,.4492-7.2802,16.8027-4.5087,0,0,1.4278-.6763,2.399-.6763,1.146,0,2.2133,.2803,3.0415,.9463,16.5039-2.4698,16.5127,3.9419,16.5468,3.976"/>
      <line class="cls-4" x1="88.755873" y1="68.438977" x2="88.530773" y2="52.356478"/>
      <path class="cls-12" d="M68.074773,66.204578c0-.157703,.1274-.2851,.2851-.2851s.2852,.127397,.2852,.2851c0,.1582-.1275,.2857-.2852,.2857s-.2851-.1275-.2851-.2857h0Z"/>
      <path class="cls-12" d="M68.074773,64.554678c0-.1577,.1274-.2851,.2851-.2851s.2852,.1274,.2852,.2851c0,.158197-.1275,.2857-.2852,.2857s-.2851-.127503-.2851-.2857h0Z"/>
      <path class="cls-12" d="M68.074773,62.904778c0-.1572,.1274-.2851,.2851-.2851s.2852,.1279,.2852,.2851c0,.1582-.1275,.2852-.2852,.2852s-.2851-.127-.2851-.2852h0Z"/>
      <path class="cls-12" d="M68.074773,61.254875c0-.157197,.1274-.285097,.2851-.285097s.2852,.1279,.2852,.285097c0,.157703-.1275,.285203-.2852,.285203s-.2851-.1275-.2851-.285203h0Z"/>
      <path class="cls-12" d="M68.074773,59.604978c0-.1572,.1274-.285103,.2851-.285103s.2852,.127903,.2852,.285103c0,.1577-.1275,.2852-.2852,.2852s-.2851-.1275-.2851-.2852h0Z"/>
      <path class="cls-12" d="M68.074773,57.955078c0-.157203,.1274-.2856,.2851-.2856s.2852,.128397,.2852,.2856c0,.1577-.1275,.2852-.2852,.2852s-.2851-.1275-.2851-.2852h0Z"/>
      <path class="cls-12" d="M68.074773,56.305178c0-.1572,.1274-.2846,.2851-.2846s.2852,.1274,.2852,.2846c0,.157697-.1275,.285697-.2852,.285697s-.2851-.128-.2851-.285697h0Z"/>
      <path class="cls-12" d="M68.074773,54.655778c0-.1582,.1274-.2851,.2851-.2851s.2852,.1269,.2852,.2851c0,.1572-.1275,.2852-.2852,.2852s-.2851-.128-.2851-.2852h0Z"/>
      <path class="cls-12" d="M68.074773,53.005378c0-.1577,.1274-.2851,.2851-.2851s.2852,.1274,.2852,.2851c0,.1572-.1275,.2857-.2852,.2857s-.2851-.1285-.2851-.2857h0Z"/>
      <path class="cls-12" d="M68.074773,51.355978c0-.1582,.1274-.2856,.2851-.2856s.2852,.1274,.2852,.2856c0,.1567-.1275,.2852-.2852,.2852s-.2851-.1285-.2851-.2852h0Z"/>
      <path class="cls-12" d="M68.074773,49.705578c0-.157703,.1274-.2851,.2851-.2851s.2852,.127397,.2852,.2851c0,.1572-.1275,.2852-.2852,.2852s-.2851-.128-.2851-.2852h0Z"/>
      <path class="cls-12" d="M68.074773,48.055678c0-.1577,.1274-.2851,.2851-.2851s.2852,.1274,.2852,.2851-.1275,.285197-.2852,.285197-.2851-.127497-.2851-.285197h0Z"/>
      <path class="cls-12" d="M68.074773,46.405778c0-.1572,.1274-.2851,.2851-.2851s.2852,.1279,.2852,.2851c0,.1577-.1275,.2852-.2852,.2852s-.2851-.1275-.2851-.2852h0Z"/>
      <path class="cls-17" d="M47.604973,62.759778l2.5982-.9653-.148,.8911,.8907-.1489s-.1475,.7099-.0743,.7426c.0733,.0328,1.0381,.3291,1.0381,.3291,0,0-.8886,.9004-4.3794,2.2696l.0747-3.1182h0Z"/>
      <path class="cls-17" d="M56.885273,62.017078c.1475-.0415,3.044-.8169,3.044-.8169l-.1485,1.188,.5938-.1479s-.1475,.8579-.1485,.890597c-.0009,.032203,.5201,.074203,.5201,.074203,0,0-3.3404,2.5659-5.8653,3.489797,0,0,1.857-4.635797,2.0044-4.677797h0Z"/>
      <path class="cls-17" d="M78.267173,63.205078c-.1495,.0327-2.6729-1.039-2.6729-1.039-1.3369-.71-.3711,.7426-.3711,.7426l-1.1133-.297803s.1489,.784703,.0742,.817403c-.0756,.0322-.7426,0-.7426,0,0,0-.2959,3.0107,5.7168,2.8203,0,0-.7412-3.0762-.8911-3.0435h0Z"/>
      <path class="cls-17" d="M83.761273,62.536678l2.5986-.1485,.2969,.742697s1.189,.041503,1.188,.148403c-.001,.107-.8906,1.4107-.8906,1.4107l1.1132,.6684s-1.1865,1.6749-4.7514-.8911l.4453-1.9306h0Z"/>
      <polyline class="cls-13" points="66.585473 45.205078 66.580573 68.239777 70.116773 68.209977 70.114273 45.047378"/>
      <path class="cls-5" d="M66.211473,45.373078c.4722-.3203,1.2217-.5269,2.0688-.5269,.898,0,1.6895,.232,2.1543,.5855-.5879-.6904-1.1318-2.3169-1.2568-4.0322,1.4116,.1113,2.6074,.458,3.3052,.9423-.2173-.4677-.3667-1.125903-.3667-1.8564,0-.685504,.2163-1.334,.4106-1.7944-.688,.4961-1.8979,.83-3.3281,.9458,.1074-1.2442,.4014-2.3135,.8086-3.0122-.4209,.0742-.9966,.2065-1.4839,.2065-.7036,0-1.4067-.1499-1.9526-.2964,.4404,.7027,.7573,1.8296,.8642,3.1485-1.6836-.1099-3.1406-.5464-3.7744-1.1631,.2481,.4721,.3989,1.1772,.3989,1.9653,0,.8389-.101,1.624496-.3779,2.0937,.6362-.621,2.0757-1.0888,3.7686-1.2026-.1377,1.7476-.628,3.3208-1.2388,3.9966h0Z"/>
      <path class="cls-11" d="M58.666073,50.716378c0-.959,.7773-1.7364,1.7368-1.7364,.959,0,1.7363,.7774,1.7363,1.7364,0,.9594-.7773,1.7373-1.7363,1.7373-.9595,0-1.7368-.7779-1.7368-1.7373h0Z"/>
      <path class="cls-11" d="M73.746173,50.630378c0-.959503,.7778-1.7363,1.7368-1.7363s1.7368,.776797,1.7368,1.7363c0,.959-.7778,1.7363-1.7368,1.7363s-1.7368-.7773-1.7368-1.7363h0Z"/>
      <path class="cls-11" d="M49.684573,50.777875c0-.924797,.5821-1.674797,1.2998-1.674797,.7173,0,1.2994,.75,1.2994,1.674797,0,.925303-.5821,1.675803-1.2994,1.675803-.7177,0-1.2998-.7505-1.2998-1.675803h0Z"/>
      <path class="cls-11" d="M84.115273,50.777875c0-.924797,.5815-1.674797,1.2993-1.674797s1.2993,.75,1.2993,1.674797c0,.925303-.5815,1.675803-1.2993,1.675803s-1.2993-.7505-1.2993-1.675803h0Z"/>
      <path class="cls-11" d="M87.527373,50.748578c0-.9414,.3784-1.7056,.8447-1.7056,.4668,0,.8448,.7642,.8448,1.7056s-.378,1.7051-.8448,1.7051c-.4663,0-.8447-.7637-.8447-1.7051h0Z"/>
      <path class="cls-7" d="M48.293973,52.459978c.0298,0,.2305-.4316,1.3457-.0976,1.1157,.3339,1.186,.664497,2.3013,.3476,1.1162-.3174,1.3594-.5303,2.4321-.25,1.0723,.2798,1.0122,.2393,1.7803,.1196,.768-.1196,1.1421-.3999,2.041-.1196,.8979,.2798,1.0117,.4365,1.9102,.25,.8989-.187,1.083-.543,2.1196-.2563,1.0371,.2861,.9336,.4189,1.9624,.2124,1.0288-.2061,1.8237-.3804,2.5049-.0567m3.3437-.1494c.0298,0,.2305-.4316,1.3457-.0976,1.1162,.3339,1.1861,.664497,2.3018,.3476,1.1152-.3174,1.3594-.5303,2.4316-.25,1.0723,.2798,1.0117,.2393,1.7803,.1196,.7685-.1196,1.1426-.3999,2.0405-.1196,.8989,.2798,1.0122,.4365,1.9112,.25,.8979-.187,1.082-.543,2.1191-.2563,1.0371,.2861,.9331,.4189,1.9624,.2124,1.0288-.2061,1.8237-.3804,2.5054-.0567m-34.8628,15.5244l-2.5684-10.6772-2.2973,10.6772-1.3516-.0678,3.5137-15.5425,3.9873,14.7319,5.5864-14.6982,6.0976,13.8882"/>
      <path class="cls-1" d="M38.462473,68.234377c-.023,.250497-7.4121,54.992197,29.5341,74.741197h0c36.9463-19.749,29.3999-74.3427,29.377-74.593197-.023-.251-58.8877-.398503-58.9111-.148h0Z"/>
      <path class="cls-17" d="M77.689473,80.790575c.751,.0361,.6245-1.0137,1.086-1.592297,.5249-.6607,.6967-1.1582,1.3027-1.7373,1.0947-1.0488,2.0991-1.4473,3.6191-1.4473,1.5381,0,2.3252,.6695,3.8365,.9404,.6508,.1182,1.6196,.1363,1.5195,.7964-.1079,.733397-1.1851,.7056-1.23,1.4478,.8413,.2353,1.3662-.0723,2.2437-.0723,.1987,.868197-.4527,1.511297-1.2305,1.954097-1.4658,.8325-3.1123,.5615-4.2705-.6509-.8599-.896397-2.0088-2.017997-2.9678-1.230897-1.1035,.905297-1.5923,1.736797-1.9541,3.112297-.1987,.7602-.2441,1.2217-.5068,1.9541-.208,.5791-.5972,1.1045-.2168,1.5928,.3344,.4253,.8681,.1084,1.375,.2895,.7778,.2803,1.2934,.1895,2.0991,.3618,1.2666,.2715,2.3164,.8775,3.3296,.0723,.5791-.4609,.6509-1.2036,.3618-1.8818-.2173-.5249-.7964-.6602-.7964-1.231,1.3755-.3252,3.1128,.3267,3.1846,1.7378,.0815,1.5562-.1172,2.7593-1.3028,3.7637-1.312,1.1128-2.6782,1.3301-4.3427,.8686-1.3389-.3711-2.2437-.0093-3.5469-.5068-.4702,.6963-.4702,1.6831,.2173,2.1719,.4165,.289,.8232,.0449,1.3027,.2173,.7964,.2895,1.3213,.3525,2.1714,.2895,1.104-.0908,1.9092,.0537,2.751-.6523,.3799-.3164,.0903-.8233,.3618-1.23,.3076-.4614,.9683-.4253,1.4478-.145,.8774,.5068,1.1215,1.6015,.7236,2.5332-.4707,1.1045-.9048,1.8007-1.9541,2.3891-1.9727,1.1123-3.5288,.2896-5.7905,.2896,0,.6411,.3979,.9399,.6513,1.52,.2715,.6152,.1719,1.2119,.7237,1.5918,.4887,.3349,.9321,.1367,1.52,.2178,.9502,.1357,1.7646,.2978,2.4609-.3623,.6426-.6055,.5972-1.3204,1.2305-1.9532,1.1675,.795,1.6015,2.3243,.8686,3.545-.5156,.8691-1.1762,1.2851-2.1714,1.4482-.6152,.0996-.977,.0996-1.5922,.1455-.4981,.0352-.1812,.832,0,1.3018,.2622,.6699,.2534,1.3847,.9409,1.5927,.5063,.1543,.8413,0,1.3755,0,1.0766,0,2.4424-1.1757,2.75-.1445,.353,1.1856,0,2.2432-.9409,3.0391-.5879,.498-1.2667,.1914-1.8819,.6523-.3169,.2354-.0996,.6328,0,1.0137,.2622,1.0039,1.9907,.9853,2.6782,.2168,1.0948,.7236,.3799,3.1484-.9414,3.2568-.4521,.0361-.7778-.2256-1.1577,0-.4883,.2901-.1631,.9053-.3618,1.4483-.1812,.497-.2715,.7949-.4341,1.3027-.3896,1.1758-.9233,2-2.0991,2.3887-1.7105,.5693-3.3477-.1905-4.271-1.7383-.9678,.4258-.5791,1.584-1.1577,2.4619-.2173,.3252-.7329-.4981-1.0137-.2178-.3706,.3711-.2168,.8233-.4341,1.3037-.1264,.2793-.2802,.6778-.5791,.5782-.4341-.1446-.2988-.7774-.7236-.9395-.2622-.1006-.3623,.2617-.5791,.4336-.7056,.5693-1.0405,1.7012-.3618,2.3154,.3345-.2256,.6513-.1631,1.0132-.3613,.3891-.2178,.6875-.6338,1.0854-.4346,.6065,.2989,.9868,.5069,1.6651,.5069,.7871,0,1.2573-.8506,1.9545-.5069,.6875,.3438,.8955,1.0489,.7959,1.8096-1.0312,0-2.1079,.1631-2.3886,1.1582,.7422,0,1.167-.543,1.8823-.3623,.334,.082,.5425,.6426,.2891,.8691-.8233,.7598-.6514,1.6914-.6514,2.8223-.4795,0-.7871-.1719-1.2305,0-.3891,.1455,.1631,.7334-.0722,1.0859-.1993,.3077-.5337,.209-.8687,.3623-.6421,.3077-.5972,.9854-.7964,1.6651-.3076,1.0312-.6147,1.5918-1.2305,2.4609-.3798,.5332-1.2753,.7774-1.0131,1.375,.2988,.6875,.1626,1.2666-.1451,1.9551-.289,.6504-.4795,1.2031-1.1577,1.4473-.6338,.2256-.8232-.6973-1.3755-1.086-.1806,1.2393-.1176,1.9629-.3618,3.1846-.0903,.4707-.3979,.9326-.8681,.8682-.6792-.0899-.9414-.5606-1.4483-1.0127-.8325,.7685-2.0264,2.081-2.6782,1.1582-.7505-1.0596-.3613-2.0274-.3613-3.3291-.5337,0-.9322,.2793-1.3755,0-.4795-.3086-.4434-.9336-.2168-1.4483,.416-.9414,1.0312-1.3037,1.8818-1.8818,.832-.5703,1.5923-.0723,2.6055-.0723,1.0586,0,1.4839-.9043,2.0268-1.8105,.6514-1.0938,1.0132-1.836,1.0132-3.1113,0-.9141,.2803-1.6739-.3618-2.3165-.3711-.371-.959-.4707-1.375-.1445-.4346,.334,.1987,1.0127-.145,1.4473-.3076,.3887-.9771-.0098-1.2305-.4346s-.0815-.8779-.4341-1.2295c-.0366,.877-.2714,1.3653-.2177,2.2432,.0454,.706-1.5015,.4072-1.8096-.2178-.7686-1.5371,0-2.7324-.3613-4.4141-.3985-1.8281,.3344-2.9052,.434-4.7783,.0723-1.3115,.7784-1.9453,1.5923-2.9668,.3531-.4433,.7964-.6601,.7964-1.2304-1.6377-.0821-2.6875-.7793-4.1982-.1455-.6787,.2802-.8506,.8056-1.4478,1.2304-.6147,.4346-1.5019,.2725-1.6645,1.0137-.0723,.335,.3799,.5068,.7236,.5068,1.1401,0,1.7822,.5967,2.5332,1.4473,.7871,.8877,1.0137,1.7012,1.0137,2.8955,0,.543-.6245,.6875-.6514,1.2305-.0273,.5605,.5064,1.2207,0,1.4472-.5249,.2354-.3623,.8418-.5791,1.376-.2173,.543-.4888,.7959-.8686,1.2295-.2984,.3359-1.0044,.8789-1.0855,.4356-.0996-.5528,.1445-.8868,.1445-1.4493-1.3481,0-.7509,2-1.3754,3.1856-.2984,.5605-.2623,1.1133-.7959,1.4472-.6426,.4082-1.4659,.2989-1.9541-.289-.733,.543-.8057,1.2207-1.086,2.0996-.1269,.416-.3076,.6514-.3623,1.0859-.063,.4707,.29,1.0489-.1445,1.2295-.8506,.3623-1.7193-.2441-2.0987-1.0849-.3715-.8243-.163-1.4483-.5795-2.2442-.4522,.1719-.7237,.7149-1.1582,.5059-.751-.3613-.8863-1.1211-.8682-1.9541,.0268-1.2119-2.0269-1.5459-1.5923-2.6778,.1987-.5244,.6509-.5888,1.0855-.9404,.5429-.4355,.977-.8779,1.6645-.7246,.4165,.0908,.7783-.0723,1.0859,.2178,.2442,.2256,.1993,.5791,.5069,.7236,.561,.2715,.9678,.0088,1.5923,0,1.2846-.0273,1.1674-1.6924,1.5922-2.8955,.3892-1.1123,.4434-2.7598-.7236-2.9678-1.2305-.2168-2.5102,.3633-3.1123-.7236-1.1509-2.0781-.3804-2.0166-.5068-3.3301-1.2217,0-2.6055-.5156-2.6055-1.7363,1.6826-.2354,2.4878-1.3574,3.3296-2.8233,.6782-1.1767,.8501-2.2705,2.0986-2.8232,1.3936-.6152,2.0904-1.5195,3.6192-1.5195,1.6103,0,2.5156,.2168,4.1255,.2168,.018-.4785-.3433-.8047-.1446-1.2305,.0728-.1621,.3169-.2803,.2173-.4336-.2895-.4433-.769-.3262-1.2305-.5791-.8325-.4531-1.2846-.7432-2.0991-1.2314-1.9365-1.1582-2.895-2.1895-4.0537-4.125-.5063,.2168-.7236,.75-.6509,1.3027,.0542,.4434,.3526,1.0312-.0727,1.1582-1.0132,.3076-1.6377-1.041-1.7368-2.0996-.9234,0-1.5386,.6426-1.8096,1.5205-.127,.4072,.0361,.8145-.2896,1.085-.4707,.3984-1.2939,.6884-1.5922,.1464-.3257-.5976-.2627-1.0595-.5791-1.666-.733,.1895-.2081,1.2305,0,1.9551,.1899,.6699-.1631,1.1035-.4346,1.7363-.3164,.7237-.6787,1.1494-1.375,1.5196-.3257,.1728-.8052,.2636-.9414-.0723-.1446-.3613,0-.6143,0-1.0127-.7598,0-1.4834,.2803-1.6646,1.0127-.1357,.5615-1.1489,.0645-1.4477-.4336-.5244-.8867-.1626-1.71,.2173-2.6777,.145-.3711,.3256-.9961-.0723-1.0137-.6787-.0371-1.5112,.7783-1.7373,.1445-.2534-.7148-.2896-1.2304-.0723-1.9541,.2442-.8134,.0542-1.6377,.7959-2.0263,.6519-.3438,1.2129-.6797,1.8823-.3633,.5157,.2461,.5337,.8418,1.0855,1.0137,.9414,.29,1.5923-.3067,2.3887-.8672,1.2758-.9053,2.0898-1.3125,3.4018-2.1719,.6338-.4082,.8506-.8506,1.3028-1.4483,.226-.3071,.6699-.5244,.5068-.8681-.1807-.3897-.5156-.4888-.8687-.7236-.6601-.4439-1.0586-1.023-.9409-1.8101,.0996-.6694,.9863-.5068,1.6651-.5068,.1084-.4615-.4527-.6241-.7242-1.0127-.3979-.5616-.5063-.9776-.9409-1.5205-.3437-.4341-.7417-.6153-.8686-1.1582-.1538-.6695,.145-1.2115-.2891-1.7369-.8413,1.0313-2.6782,1.6197-3.4023,.5069-.398-.6153,.6152-1.0674,.5791-1.8091-.0362-.7427,.0542-1.1768,.2895-1.8823-.2441-.0362-.3437,.2173-.5791,.2895-.8325,.2803-1.4018,.3257-2.0991,.8682-.3706,.2895-.6782,.8144-1.0855,.5791-1.3662-.7964-.9589-2.6509-.2172-4.0528,.1088-.2177,.2353-.5615,0-.6523-.2622-.099097-.5157,.1001-.7237-.071797-.2173-.1816-.0996-.5429-.3623-.6513-.4429-.1905-.7597,.787097-1.1577,.5068-.3169-.2266-.3169-.5615-.3618-.9414-.208-1.5562,.814-3.2207,2.3882-3.2568,.8325-.0186,1.5293,.9589,2.0991,.3618,.543-.5699-.4976-1.6826,.2173-2.0269,1.3388-.6426,3.04,.8233,3.04,2.3164,0,1.7007-.1811,2.949197,.8687,4.269997,.2983,.3804,.624,.4981,1.0132,.7964,.2714,.208,.5517,.6792,.7963,.4346,.606-.6064,.6514-1.2939,1.375-1.7378v-.216297c-.5068,0-.8501-.0728-1.3027,.1445-.4253,.198797-.4795,.904297-.9409,.795897-.9321-.2173-.5791-1.429697-.5791-2.388197-1.0044-.0454-1.0044-1.709903-.4341-2.5332,.6602-.9506,1.6284-.8149,2.6777-1.3032-.2802-.8418-1.375-.5068-2.2436-.3618-.4341,.072297-.6514,.4434-1.086,.3618-1.0854-.1987-.3437-2.4878,.7242-2.750503,2.4428-.605897,4.3247,.027403,6.2246,1.664603,.4253,.3618,1.0859,.9956,1.3755,.5068,.3164-.5337,.8232-.6963,1.4472-.7241,1.3301-.072303,2.1172-.2534,3.3296-.7954,1.1944-.5347,1.6831-1.2036,2.7505-1.9546,.561-.3892,1.0772,.180697,1.7373,.3618,.5425,.1445,.9321-.1626,1.375-.5068,1.0405-.8057,2.063-1.4927,3.2573-.9409,.3799,.1723,.9048,.5341,.6514,.868597-.5156,.669903-1.8364,1.085903-1.3027,1.737303,.3711,.4614,1.3027,.5518,1.52,0,.2446-.6338-.0269-1.131303,.2895-1.737303,.5069-.949697,2.1895,.388703,2.3887,1.447803,.1084,.5879-.2534,1.2485,.2896,1.5195,.6694,.335,1.1943,.2358,1.809,.6518,.5523,.3804,.9141,.632897,1.231,1.2305,.1084,.208,.3345,.3799,.2168,.5791-.2256,.3618-.6514,.217297-1.0854,.217297-.6607,0-1.0313,.108403-1.6651,.289603-.5698,.1626-.0273,.9228,0,1.5195,.0728,1.3032,0,2.0268,0,3.329597h0Z"/>
      <path class="cls-16" d="M72.116273,70.078177c.0454,.533697-.398,.7695-.4341,1.3032-.3169,0-.4795-.127-.7964-.145-.0903-.6514,.5703-1.2036,1.2305-1.1582h0Z"/>
      <path class="cls-16" d="M75.373573,70.729477c.7144,.4439,1.1401,1.547397,.5063,2.0992-.3525-.1089-.7055-.0357-.8681-.3614-.3076-.6162,.0268-1.1499,.3618-1.7378h0Z"/>
      <path class="cls-8" d="M77.255373,73.914577c-.896,.1631-1.3755,.4341-2.2436,.7236-.8867,.2896-1.4571-.2895-2.3887-.2895,.1177,1.303197,1.9902,1.0229,3.2568,.7241s2.4161-1.2754,3.3301-.3623c-.3442,.2353-.6972-.0181-1.0859,.145-.7598,.3257-1.2666,.4346-2.0991,.4346,0,1.0127,.8774,1.383797,1.0136,2.3882,.1446,1.0952,.2168,1.7192,.2168,2.822697-.7417-.5517-.3979-1.401797-.5791-2.315897-.1176-.5884-.4253-.8686-.5791-1.4473h-.3618c.2446,1.2847,.3706,2.0357,.5791,3.328697,.1084,.6972,.3164,1.1767,0,1.81,0-1.0312-.2441-1.6103-.5068-2.605497h-.2891c0,1.809097,.6421,2.912597,.0718,4.631897-.2896,.8686,.0727,1.5561-.4341,2.3164,0-1.5562,.9951-2.7778,.0093-3.981h-.1538c-.0816,1.8824-.127,3.0948-1.086,4.7051-1.2485,2.0811-2.2436,3.3657-2.2436,5.79h-.2173c-.1626-3.4741,2.3164-5.1391,2.3164-8.6127h-.29c-.2349,2.4692-1.6284,3.5097-2.3882,5.8623-.4072,1.2851-1.0947,1.8369-1.52,3.1123-.3711,1.122,.2168,1.8549,.2168,3.0395-1.3482,0-1.3662-2.0527-.9405-3.3291,.4248-1.2934,.8413-1.9629,1.4473-3.1846-.3618,.0274-.3706,.4346-.5791,.7242-.3887,.5429-.6421,.8593-.9409,1.4472-.4795,.9409-.4702,1.6197-.8687,2.606-.7509,1.8633-.2173,3.873-2.0263,4.7773,.1987-.8515,.4702-1.2949,.7959-2.0996,.4165-1.0312,.0634-1.8271,.5791-2.8222,.3891-.751,.5796-1.2486,.5796-2.0997-.4351,.1363-.2627,.6968-.5069,1.086-.5972,.9409-.6606,1.6557-.8686,2.75-.3077,1.5928-.4615,2.8691-1.8096,3.7637,0-.7774,.1899-1.2207,.4341-1.9532,.3803-1.1494,.1367-1.8027,.7612-2.8427,.4614-.7686,.7315-1.4097,.9038-2.2969-.6152,.0908-.6245,.769-.9414,1.3032-.6147,1.0313-.7598,1.7456-1.0854,2.895-.2622,.9317-.063,1.5918-.5069,2.461-.3618,.6972-.7597,.9961-1.1577,1.664h-.2173c0-1.248,.624-1.8711,.7964-3.1113,.1719-1.2764,.0747-1.9316,.6265-3.0903,.3169-.6607,.604-1.1714,.604-1.9043-.4165,.063-.4527,.4975-.6519,.8686-.6601,1.1851-.4702,2.0889-1.0132,3.3291-.7055,1.6113-.1992,3.1211-1.52,4.2715,.1807-1.3223-.2173-2.0723-.2173-3.4023,0-.7598-.271-1.2852,.0728-1.9551,.2534-.4971,.4702-1.0488,.0723-1.4468-.1631,1.0127-.4888,1.5464-.941,2.4605-.018-.1172-.0454-.2266-.145-.2891,.3892-.7783,.5069-1.3027,.5069-2.1714h-.2173c-.1446,.877-.5157,1.2925-.8682,2.0991-.2446,.5606-.2353,1.0039-.6519,1.4473-.6333,.6699-1.1582,.9404-1.7368,1.6641,.0992-1.1211,.7598-1.6006,1.375-2.5332,.6514-.9766,.6416-1.5577,1.2115-2.5796,.3256-.5884,.7426-1.0845,.7426-1.7627-.6963,.1084-.769,.8232-1.0854,1.4477-.543,1.0498-.543,1.8457-1.3028,2.75-.5249,.6328-1.0136,.8965-1.4477,1.5928-.5791,.9326-.145,1.7197-.145,2.8232-.8775-.4345-.7144-1.4843-.5791-2.4619,.1177-.9043,.2895-1.4111,.6518-2.2431,.7691-1.7554,1.4112-2.733,1.6646-4.6329h-.4346c0,1.0406-1.5288,2.5245-2.0986,1.6651,.8686-.0361,1.0947-.9771,1.9541-1.086v-.3618c-.9141,.0454-1.2847,.6607-2.1714,.8687-.7144,.1719-1.8457-.4976-1.52-1.1582,.9682,.2988,1.7915,.2446,2.6059-.3613,.4341-.3267,.5972-.6519,1.0855-.8687,.353-.1636,.769-.2534,.7964-.6519-.3985,0-.9141-.0361-.9414-.434,1.792-.335,2.3344-1.8897,3.6919-2.8955,.7353-.5445,1.1762-.8775,2.0268-1.2305,.9317-.3887,1.5923-.0723,2.6055-.0723,.018-.1172,.0454-.2265,.1445-.2895-.2261-.4615-.6963-.4253-1.1577-.6509,.0723-.1543,.1357-.2534,.1445-.4351,1.8184,0,2.5874-1.1938,4.1983-2.0263,.8325-.4253,1.0224-1.0674,1.5923-1.8101,.5429-.705597,1.5922-.768497,1.5922-1.6641-.6059,0-.9677,.596703-1.5195,.361903-.688-.298903-1.104-.5254-1.5928-1.086-.8867-1.0137-1.7011-1.8091-3.04-1.665-.5518,.0547-.7603,.498-1.0859,.9409-.5157,.688-.959,.9683-1.4473,1.665-.2896,.4161-.8506-.0537-1.3027-.2895-.2261-.1177-.543-.1084-.5791-.3618-.0635-.4253,.3437-.5791,.5791-.9409,.6962,.3432,1.8457,.0629,1.8818-.7242,.0454-.8139-.3438-1.7368-1.1582-1.7368-.3799,0-.4976,.3706-.8687,.4346-.3891,.063-.6787-.208-1.0131,0-.4161,.2617-.335,.840797-.7964,1.0127-.3526,.1362-.6148-.416-.5791-.795903,.2085-.008797,.3076-.099097,.5068-.144497,0-.5069-.2715-.8599-.7241-1.086,.3169-1.0312,1.5928-.7964,2.6782-.7964,1.0498,0,1.4839-.9404,2.5337-.9404,.5337,0,.9863-.2803,1.375,.0718,.4795,.435,.1631,1.0498,.5068,1.5927,.5244,.8326,1.5381,.216797,2.5332,.216797-.0903-1.04-.9502-1.419897-1.8818-1.881297-.4522-.2266-.7598-.3535-1.0859-.7241-.2803-.3164,.3623-.6328,.7236-.8687,1.873,.579097,2.8144,1.4297,4.7773,1.5928,.9952,.0811,1.4117,.7871,2.3887,.9404,1.0405,.1631,1.8003-.1445,2.6782,.4346h0Z"/>
      <path class="cls-16" d="M59.883773,77.388677c-1.5922,0-2.3793-.7324-3.8359-1.375-1.1855-.5249-2.0268-.0815-3.3296,0,.5518-1.112803,1.8638-.7236,3.1123-.7236,1.1851,0,1.71,.9409,2.895,.9409-.1352-1.4385-1.7099-1.4756-2.75-2.4614-1.1132-1.0498-2.2983-.9409-3.8369-.9409-.0356-.8145,1.1133-1.1939,1.8824-.9405,1.0586,.3526,1.8544,.334,2.6782,1.085,.8686,.7871,1.0674,1.5474,1.9541,2.3169,.7148,.6152,1.3569,1.1582,1.2304,2.0986h0Z"/>
      <path class="cls-6" d="M67.483873,73.697277h.2168c.0186,.081597,.0455,.1362,.0728,.2173-.1357-.0361-.2261-.0903-.2896-.2173h0Z"/>
      <path class="cls-9" d="M48.954173,74.348677c.3891-.0093,.5068,.48,.5068,.8686-.3799-.063-.8955-.8593-.5068-.8686h0Z"/>
      <path class="cls-15" d="M50.256873,75.724177c0,.1079,.0181,.1811,0,.2895-.0356,.416-.5518,.6509-.3613,1.013197,.1084,.216803,.4248,.199203,.5063,.434103,.2715,.7334-.1899,1.3208,.1445,2.0268,.5884,1.239797,1.2491,1.818897,2.3165,2.678297,.8955,.7236,1.1489,1.5927,2.2436,1.9546,1.8189,.6054,2.8862,1.0312,4.4155,2.1709,.4346,.3261,.8687,.7421,.6514,1.2309-.5518,1.2393-1.6104,1.7183-2.9678,1.8091-.0815,.5337,.1631,.8506,.2896,1.3755-1.6284,.3076-2.5332-1.0674-3.5464-2.3882-.4439-.5791-.7695-.9414-.8687-1.665-.1543-1.1221-.1718-2.6065-1.3027-2.6065-.0181,.4346-.0273,.6973-.2173,1.0859-.6606-.2441-.9956-.7509-1.0854-1.4477-.0909-.6694,.3071-1.1392,0-1.7368-.1636-.3257-.543-.5244-.8687-.3618-.4072,.1992-.7329,.7871-1.0859,.5068-.2808-.2266-.2988-.4976-.5069-.7964-.353-.5068-.2348-.9775-.1445-1.592297,.0811-.5068-.7148-.5068-1.2305-.5068-1.1762,0-1.2304-1.5747-1.2304-2.75,.416-.0908,.6421,.4429,.7236,.8682,.4253-.0635,.4702-.5249,.5791-.9415,.9409,.0816,1.1763,.9683,1.5923,1.8101,.6426-.1987,.2627-1.0591,.2173-1.7368,.6426-.1455,1.0859-.2446,1.52-.7241h.2168Z"/>
      <path class="cls-16" d="M63.358473,75.724177c.5337,0,.9404,.4795,.9404,1.0136-.5064,0-.814,.0538-1.3027-.0732,.018-.388703,.2626-.5698,.3623-.9404h0Z"/>
      <path class="cls-16" d="M61.982973,76.230977c.7236,.4522-.543,1.23-1.086,1.8818-.6059,.7237-1.3662,.814-2.3159,.7959-2.0898-.0537-3.2666-.216803-5.3564-.216803,.9502-1.665,2.9316-.896,4.8496-.796297,.9048,.0454,1.5293,.5791,2.3164,.1445,.353-.19,.2261-.678203,.5791-.8687,.4614-.2534,.7778-.4614,1.0132-.9404h0Z"/>
      <path class="cls-15" d="M87.823273,77.895577c-.3623,.4975-1.0044,.2622-1.5923,.0722-.9053-.2988-1.5024-.2173-2.4614-.2173-1.4292,0-2.3706,.543-3.2568,1.6651-.688,.877397-1.1402,1.411097-1.5206,2.460897-.6508,1.7822-.2529,3.1216-1.3027,4.7046-.4975-.4526-.2803-1.0947-.0723-1.7373,.3165-.9497,.3711-1.5381,.5069-2.5332,.2261-1.665,1.0586-2.4429,2.0991-3.7637,.6694-.850097,1.1397-1.393,2.1714-1.737297,.9863-.3252,1.728-.416,2.6777,0,1.0498,.4619,1.6651,.7237,2.751,1.086h0Z"/>
      <path class="cls-16" d="M44.684073,77.171377c.0538,.2442,.045,.4073,0,.6519h-.5791c-.0092-.3345,.2442-.6519,.5791-.6519h0Z"/>
      <path class="cls-2" d="M54.744673,82.962475c.0903-.6788,.9775-.5069,1.5923-.7964,.769-.3619,1.1401-.7056,1.7373-1.3033,.3349-.3349,.416-.7231,.8686-.8686,.959-.316397,1.9361-.1079,2.3887-1.012697,1.0044,.7505,2.3433,1.438497,3.1846,.5063,.5971-.6606,.896-1.104,1.5923-1.6645,.1723-.1358,.0815-.4346,.2895-.5068,.4707-.1812,.8052-.045,1.3027,0,.7603,.0629,1.2129,.4975,1.5928,1.1582,.3711,.6513,1.2935,.9677,1.0132,1.664997-.5518,1.3384-1.6465,1.6196-2.8228,2.4604-.4252,.2984-.6513,.5611-1.1582,.7242-.4794,.1533-.8501-.3618-1.3027-.1451-.4346,.2081-.3525,.6968-.5068,1.1587-.1538,.4605-.6514,.4429-1.0855,.6509-.8594,.4072-1.3301,.6875-2.0991,1.2305-.5068,.353-.8955-.4434-1.4478-.7236-.6787-.3438-1.0947-.5342-1.7373-.9415-.5244-.3256-.9951-.1801-1.52-.5068-.7143-.4521-1.0766-.8047-1.8818-1.0849h0Z"/>
      <path class="cls-15" d="M83.479973,78.402377c1.0679,0,1.9273-.1719,2.6783,.5791,.7417,.7417,1.5107,1.627897,2.4609,1.158197-.2803,1.0674-1.9092,.9673-2.8228,.3613-.9501-.6333-1.2036-1.5381-2.3164-1.8091v-.289497h0Z"/>
      <path class="cls-16" d="M56.626473,80.500975c-.1533,.6875-.8862,.8687-1.5923,.8687-.0273-.1626-.0542-.271-.0722-.4346,.6513-.1177,.9951-.3618,1.6645-.4341h0Z"/>
      <path class="cls-16" d="M46.710473,80.718275c.8145,.0361,1.3027,1.1582,.9409,1.8818h-.2173c-.1899-.7597-.8774-1.1127-.7236-1.8818h0Z"/>
      <path class="cls-14" d="M77.328173,81.804175c.1079,.4703-.1001,.7598-.2178,1.2305-.0449-.0454-.081-.0639-.1445-.0722,0-.4708,.1538-.7417,.3623-1.1583h0Z"/>
      <path class="cls-9" d="M46.131373,82.310575c.3984,.0996,.4165,.6064,.3618,1.0137-.416,.018-.5605-.6607-.3618-1.0137h0Z"/>
      <path class="cls-2" d="M76.821273,83.613775h.2173c0,.6509-.1811,1.0137-.2173,1.6646-.0454,.8232,.3433,1.5835-.2895,2.0991-.9863,.8144-1.5835,1.3296-2.1714,2.4609-.6338,1.2305-.6606,2.1719-.4346,3.5469,.2266,1.3662-.2895,2.1621-.2895,3.5464,0,1.4209,.353,2.2617,1.0859,3.4746,.6695,1.1133,2.1714,1.2305,2.1714,2.5332,0,2.3887,1.8819,4.415,4.2705,4.415,.3618,1.5205,.2984,3.1846,1.8091,3.5459,.6792,.1641-.1352,1.168,.145,1.8106,.1719,.3984,.0635,.7236,.2896,1.0859,.1719,.2803,.5068,.5059,.3618,.7949-.2168,.4356-.8233,.543-1.23,.2911-.8599-.5352-1.1767-1.1954-1.4482-2.1719-.4341-1.5742-.3433-2.6416-1.1577-4.0527-1.4659-2.5528-3.2935-3.2579-5.5733-5.1407-1.1855-.9765-1.9639-1.5097-2.751-2.8222-.5063-.8496-.9951-1.2207-1.4472-2.0987-.2622-.5068-.0181-1.0859-.5069-1.3759,.0816-.1075,.1446-.1719,.2173-.2891,.0723,.0273,.1177,.0723,.1446,.1445,.3256-.1621,.6967-.0361,.8686-.3613,.3169-.5977-.3257-1.0132-.5068-1.6655-.2715-.9673,.145-1.5918,.2173-2.6055h.2172c0,.6787,.3077,1.0674,.7242,1.5928,.1806,.2256,.3164,.6245,.5786,.5068,.9594-.4521,.2622-1.6382,.4345-2.6787,.1626-.9766,.1988-1.6284,.7237-2.4609,.5429-.8501,1.1762-1.2393,1.3027-2.2432,.5791,.0268,.8687,.3618,1.4478,.3618,.3618-1.5205-.0723-2.6059,.7963-3.9087h0Z"/>
      <path class="cls-15" d="M86.809573,84.192375c.6607,.0269,.7515,.7784,1.0137,1.3755,.4434,1.022-.0366,1.9995-.8686,2.751-1.3848,1.2485-2.8409,.7954-4.7051,.7954-1.9453,0-3.5103-1.2573-4.9942,0-.6967,.5884-1.2485,.8599-1.665,1.665-.4248,.8228-.2168,1.502-.6509,2.316-.706-.5157-.2534-1.3931-.0727-2.2432,.1992-.9053,.5703-1.3667,1.0131-2.1719,.3985-.7241,1.0679-.7871,1.8096-1.1577,.7598-.3804,1.2666-.7783,2.0991-.6518,1.8369,.29,2.8413,.8691,4.7046,.8691,.9956,0,1.8457-.3267,2.2442-1.231,.3618-.8232-.0088-1.4116,.0722-2.3164h0Z"/>
      <path class="cls-16" d="M50.329673,85.422875c.226,.0635,.4882,.3081,.3618,.5068-.1177,.1905-.3531,.1451-.5791,.1451,0-.2627,.0996-.4253,.2173-.6519h0Z"/>
      <path class="cls-15" d="M77.906773,89.548875h.2173c.1811,.7778,.4341,1.2217,.4341,2.0263-.1538,.0362-.2803,.0816-.3619,.2173-.5341-.6963-.6875-1.4472-.2895-2.2436h0Z"/>
      <path class="cls-2" d="M76.893573,90.272975c.2261,.4609,.6514,.8686,.3618,1.3022-.2353,.3619-.6425,.399-1.0859,.3619,0-.7056,.335-1.0767,.7241-1.6641h0Z"/>
      <path class="cls-15" d="M76.748573,101.202175c-.7871-.1084-1.0039-.7959-1.4478-1.4482-.6875-1.004-1.0131-1.7461-1.0131-2.9668,0-1.2032,.018-2.1172,.8686-2.9678,.5791-.5791,1.0947-.6875,1.8096-1.086,1.8911-1.0581,3.4018,.0723,5.5737,.0723,1.1304,0,1.9629,.416,2.895-.2168,.4341-.2895,.7964-.4521,1.0132-.9414,.1807-.4067,.145-.9043,.5791-1.0127,.8145,0,.6694,1.23,.5069,2.0264-.1812,.8955-.9502,1.0952-1.6651,1.665-1.5742,1.2578-3.1304,0-5.1387,0-1.8457,0-3.4926,.2442-4.3432,1.8828-.9043,1.7364-.6782,3.3282,.3618,4.9932h0Z"/>
      <path class="cls-15" d="M57.495173,94.398475c-.606,1.2217-.8594,1.9541-1.4473,3.1846-.3984,.8408-.0181,1.6474-.6518,2.3173-.3799,.4063-.8868,.1436-1.4473,.1436-.0816,.8779-.8594,1.4482-1.7373,1.4482,0-.1992-.0181-.3164-.0728-.5078-.4609,.2266-.9404-.1445-1.3027,.2178-.4429,.4424-.2534,.9853-.5791,1.5205-.1987,.334-.5786,.2715-.9409,.4336-.5244,.2353-1.1758,.8691-1.4473,.3613-.2983-.5693,.5068-.9394,.5068-1.5918-.9594,0-1.7285,.5342-2.4614-.0722-.6245-.5157-.5063-1.212-.5063-2.0274,.5879-.0527,.6421,.833,1.2304,.8692,.045-.2168,.0723-.3526,.0723-.5791,.8599,.3173,1.4839,.7236,2.3159,.3623,1.4663-.6426,1.9727-1.6016,3.4019-2.3164,.9414-.4707,1.6924-.5977,2.3164-1.4473,.8325-1.1309,1.3481-2.3164,2.7505-2.3164h0Z"/>
      <path class="cls-15" d="M79.281773,94.977575c.5249,.1626,.4707,.7412,.7241,1.2314,.4614,.8946,1.0137,1.3741,1.0137,2.3877-.8237,0-.9141-.9404-1.3032-1.665-.3618-.6787-.8687-1.3032-.4346-1.9541h0Z"/>
      <path class="cls-2" d="M78.124073,95.483875c.7236,.1177,.6601,.9693,.8681,1.6646,.2178,.7148,.6519,1.0586,.6519,1.8096-.769,.1455-1.1582,.5693-1.665,1.1582-.3794,.4443-1.149-.2256-1.3028-.7959-.2715-.9864-.2534-1.7461,.2896-2.6055,.353-.5518,.8232-.6699,1.1582-1.231h0Z"/>
      <path class="cls-15" d="M68.062973,95.845775c.8145,.2539,.6514,1.1855,1.0132,1.955,.3985,.8408,.5157,1.3926,1.0132,2.1709,.7061,1.1123,1.312,1.6006,2.2442,2.5342,.3344,.334,.3076,.7871,.7236,1.0117,1.5561,.8614,2.2256,1.7012,3.5464,2.8965,1.1948,1.085,2.2715,1.5195,2.8232,3.0391,.2534,.7148,.4434,1.1133,.7237,1.8105,.416,1.0401,.0727,1.8545,.6513,2.8223,.4077,.6777,.7061,1.1758,1.4478,1.4473,.896,.3261,1.7373,.0458,2.3886-.6504,.4522-.4805-.4794-.9512-.6513-1.5928-.2447-.9141-.1446-1.7012,.5063-2.3897,1.1494-1.2109,2.624-.9853,4.2705-.5781,0,1.1582-1.5923,1.1582-2.75,1.1582-.6245,0-1.1582,.334-1.3027,.9414-.145,.5957,.3164,.9219,.4341,1.5196h.3618c0-.6514-.5972-1.1397-.2173-1.6651,.1631-.2256,.48-.2978,.7241-.1445,.208,.1269,.0362,.4072,0,.6514-.1992,1.2392-.1543,2.207-1.0859,3.04-.416,.3711-.6333,.6699-1.1582,.8682-1.5835,.6064-3.6821-.4795-3.7637-2.1719-1.1216,0-1.0947,1.3847-1.5923,2.3896-.1631-.3349-.2173-.5703-.2895-.9414h-.5069c-.0449,.9951-.2353,1.6836-.9409,2.3887-.0996-.416-.1806-.6699-.2895-1.085-.4702,.0723-.5703,.4971-.8682,.8682-.4165,.5244-.8506,.6787-1.2309,1.2305-.4883,.705-.1446,1.3847-.5064,2.1718-.1357,.2979-.3711,.461-.3623,.795,1.2671,0,1.9815-.252,3.1846-.6504,.7422-.2451,1.2129,.2627,1.9546,.5068,.6694,.2158,1.0498-.335,1.7373-.5068v.289c-.6607,.0274-.8233,.6602-1.4478,.8692-.4883,.1621-.7959-.1631-1.3027-.2178-1.2754-.1357-1.9727,.4346-3.2573,.4346-.0274,.2168-.0362,.3613,0,.5791,.6245,0,1.0312,.2627,1.5922,0,.5162-.2442,.9322-.6065,1.4483-.3623,.2622,.1181,.2441,.4433,.5063,.58-.226,.6153-.7417,.8321-1.3755,1.0127-.2441,.0635-.5156,.3799-.3618,.5791,.2085,.2618,.5884,.2442,.8687,.0723,1.1128-.706,1.8911-.8418,3.1846-1.1582-.2896,.5879-.8687,.5703-1.4473,.8691-.9409,.4883-1.5474,.795-2.606,.795-.063,.6699,1.0586,.6972,1.6651,.4355,.7143-.3086,1.185-.6973,1.9541-.5068-.0362,.4707-.5972,.4424-1.0132,.6513-.7695,.3985-1.3032,.5059-2.1714,.5059,.0991,.7246,1.0767,.5078,1.8096,.5078-.335,.9141-1.3394,.9404-2.3164,.9404,0,.6241,.8955,.5069,1.52,.5069,0,1.1582-1.1856,1.6015-2.3159,1.8818,.0088,.2256,.0356,.3623,.0717,.5791,.3711,0,.5884-.0176,.9414,.0723-.145,.914-1.1762,1.0859-2.0991,1.0859v.7227c-.4165,.1006-.7964,.1728-.9414,.5801-.081,.2353,.2896,.5517,.5069,.4336,.3711-.1983,.914-.5333,1.0859-.1446,.0903,.208-.208,.3809-.4341,.4346-.4253,.0986-.6245,.3164-1.0137,.5068-.416,.209-.7597-.6152-1.1582-.3623-.4975,.3174-.5063,.8506-.5063,1.4483-.9863,0-1.4746,.5791-2.4614,.5791,.0634,.6865,1.0136,1.5195,.3623,1.7373-.6426,.2168-1.3394-.4073-1.3755-1.086-.0269-.625,.2807-.9502,.5068-1.5195,.1992-.4902-.1357-.9326,.145-1.376,.1714-.2802,.5699-.2177,.8682-.0732-.1626,.3359-.2441,.5713-.2891,.9414,.7779-.0352,1.0313-.7149,1.5201-1.3027,.8862-1.0586,1.3662-1.7012,2.1713-2.8223,.6695-.9414,.3614-1.8008,.3614-2.9678,0-.6787-.4429-1.3037,.0727-1.7373,.3257-.2715,.7964-.3623,.7964-.7959-.543,.0264-.8779-.0185-1.3755-.2178-.6694-.2714-1.2666,.3887-1.8818,0-.6875-.4336-.7241-1.1406-.7241-1.9541-.4429,.0186-.6783,.6153-.5064,1.0137,.3257,.7412,.5064,1.2119,.5064,2.0264-.479-.4346-.0816-1.1123-.5064-1.5918-.4253-.4707-.6787-.8242-.7964-1.4483h-.434c0,1.2393,.2534,1.9717,0,3.1846-.0997,.4981-.2173,1.4209-.6514,1.1582-.4981-.2978-.4346-.8594-.4346-1.4473,0-2.5429,.2901-3.9726,.2901-6.5146,0-1.3389,.6601-2.0361,1.4472-3.1123,.5518-.751,.7237-1.3037,1.375-1.9541,.6968-.6973,1.0586-1.1582,1.52-2.0274,.3169-.5976,.0909-1.0664,0-1.7363-.0991-.7334-.1264-1.2226-.5791-1.8105-1.3208-1.7188-2.687-2.1436-4.6323-3.1123-.6514-.3252-.9048-.7588-1.5923-1.0127-1.3388-.4883-2.2705-.5616-3.3291-1.5205-.3623-.3252-.9868-.4619-.8691-.9405,.208-.8506,1.2124-.6797,1.8823-1.2304,.6328-.5157,1.0855-.6973,1.8096-1.086,1.9448-1.041,2.7505-2.5332,3.1845-4.705h0Z"/>
      <path class="cls-15" d="M87.026873,97.292975c.6875,.1094,.6514,1.086,.4341,1.7373-.2349,.6973-.5879,1.1865-1.3027,1.376-1.6104,.4336-2.7593-.29-4.2705,.4336-.3345,.1543-.6153-.0176-.941,.1445-.9951,.5166-1.3388,1.3574-1.52,2.461-.1631,.9961,.0186,1.9189,.8687,2.4619,.3979,.2529,.8501,.081,1.1582,.4336-1.5742,.2988-3.0855-.3975-3.6914-1.8819-.6519-1.5742-.1626-3.3203,1.3027-4.1972,1.4565-.8692,2.4971-1.1133,4.1982-1.1582,1.6285-.045,3.7637-.1817,3.7637-1.8106h0Z"/>
      <path class="cls-15" d="M60.245673,101.925775c-.7959-.5976-1.3208-1.0586-1.5923-2.0254-.1631-.58,.4888-.8515,.9409-1.2314,.2534-.2178,.2534-.5693,.5791-.6514,1.312-.1816,1.3301,2.1172,.7964,3.3301-.145,.3252-.5249,.877-.7241,.5781h0Z"/>
      <path class="cls-15" d="M82.104973,101.636775c.0904-.0723,.1538-.1358,.2173-.2168,.6509,.1074,.8233,.705,1.0855,1.3027,.2715,.6231,1.0224,1.1397,.5791,1.6641-.2534,.3086-.6607-.2442-.8687-.5791-.4975-.7784-.6513-1.3116-1.0132-2.1709h0Z"/>
      <path class="cls-2" d="M81.091373,101.781275c.4165-.127,.5249,.498,.7241,.8682,.4433,.8056,1.1396,1.3847,.7964,2.2441-.1543,.3897-.5884,.4346-1.0137,.4346-1.3838-.1905-1.8364-3.1407-.5068-3.5469h0Z"/>
      <path class="cls-15" d="M50.474673,103.517575c.0361,.1094,.063,.1719,.0717,.2901-.6059,.1718-.8862,.5791-1.52,.5791-.0268-.6602,.7876-.8692,1.4483-.8692h0Z"/>
      <path class="cls-9" d="M46.710473,103.591775c.6963,.3428,1.0586,.8848,1.1582,1.6641-.7871,0-1.3569-.9053-1.1582-1.6641h0Z"/>
      <path class="cls-15" d="M88.619173,104.675775c0,.8604-.0903,1.6836-.8687,2.0274-1.0312,.4531-1.7641,.0722-2.895,.0722-.8779,0-1.4384,.4795-1.8823,1.2305-.416,.7051,.29,1.6016,1.0859,1.8106v.2168c-1.0131,.1894-2.0991-.417-2.2436-1.4483-.145-1.0498,.3618-1.71,1.0132-2.5332,1.0136-1.2764,2.4428-.7959,4.0532-1.0127,.6792-.0918,1.0498-.3633,1.7373-.3633h0Z"/>
      <path class="cls-16" d="M50.040073,104.821275c.145,.0547,.2261,.126,.3618,.2178-.0454,.0449-.0815,.0625-.145,.0723v.5781h-.4341c0-.3437,.0542-.5693,.2173-.8682h0Z"/>
      <path class="cls-10" d="M84.710973,107.572275c.7871,0,1.1577,1.2305,.7236,1.8809-.7329-.2715-.7783-1.0938-.7236-1.8809h0Z"/>
      <path class="cls-2" d="M83.842273,107.933575c.1534,.3526,.3165,.5606,.3619,.9414-.3077,.0088-.6333,0-.7242-.29-.081-.2705,.2354-.3975,.3623-.6514h0Z"/>
      <path class="cls-15" d="M67.266673,108.440475c1.0136,.0459,1.7099,.751,1.9541,1.7373,.3169,0,.706-.0449,.7241-.3613,.4253,.207,.4433,.6601,.8686,.8681,.606,.2979,1.167,.9131,.8687,1.5195-.4888,.9776-2.2437,.0186-2.606-1.0136,.2715,.2002,.5249,.2178,.8687,.2178-.0542-.6153-.606-.7969-1.0855-1.1583-.7422-.5703-1.1767-.9687-1.5927-1.8095h0Z"/>
      <path class="cls-15" d="M66.687573,111.190475c.4614,0,.6337,.4892,.7236,.9414,.2988-.0088,.4531-.2442,.5796-.5069,.9316,.2891,1.2934,.8321,2.0986,1.375,.4077,.2715,.8057,.1094,1.231,.3624-.3169,.2802-.3892,.6601-.7964,.7959-2.1172,.706-4.1079-1.4571-5.7183,.0722-.8052,.7598-1.3388,1.1406-2.3159,1.6651-.4165,.2177-.7964-.0459-1.2305,.1455-.6699,.289-1.1494,.8222-1.8095,.5058-.2535-.1172-.3618-.3437-.6514-.3613,.0269,.5781,.5063,1.0586,1.0854,1.0137,.751-.0547,1.1314-.4356,1.8819-.4356,0,.5879-.0723,1.167,.4346,1.4483,.7871,.4336,1.4384,0,2.3159,.2168v.289h-1.52c0,.8877,1.3393,.4258,2.0991,.8692,.8052,.4609,1.1943,1.2578,1.0132,2.1718-.6783-.4345-.7056-1.1943-1.4473-1.5205-.5249-.2256-1.9365-.0185-1.4478,.2901,.543,.3437,1.1582-.0274,1.5923,.4336,.6787,.7148,1.0948,1.5742,.6519,2.4609-.2266-1.1309-.7964-2.2432-1.9546-2.2432,.0181,.4336,.4072,.5889,.7236,.8682,.4707,.4258,.4981,.9043,.6519,1.5195,.2622,1.0235,.3618,1.9825-.4346,2.6797,0-.5527,.0816-1.0596-.3618-1.376-.2534-.1806-.5884,.0186-.7964-.2177-.2803-.3164-.2895-.8682-.7236-.8682-.0362,.3984,0,.6152,0,1.0137-.0454-.0459-.0635-.0811-.0723-.1455h-.3623v.8691c-.0991-.1445-.1626-.2353-.2895-.3613h-.2168c0,.6875,.018,1.1123,.2895,1.7363,.1357,.3086-.0635,.6875,.2168,.8691-.3433,.6973-1.1758,.4073-1.9541,.5059,.2446-.5879,1.1309-.6777,1.0132-1.3017-1.2935,0-1.9092,1.1572-2.3159,2.3876-.1089,.3262,.0991,.7608-.2173,.8692-.3438,.1172-.624-.0996-.8687-.3613-.3799-.4082,.3892-.9512,.1446-1.4483-.7144,.3526-.9224,.8594-1.5923,1.3018-.5157-.6953-.0181-1.791,.7964-2.0977,.3711-.1367,.6699,.1074,1.0131-.0722,.5972-.3174,.7061-.8243,1.086-1.375,.6426-.9336,.4707-1.711,.6513-2.8243,.1626-.9765,.2808-1.6738-.2167-2.5332-.6792-1.1582-2.1539-.2353-3.3301-.8691-.6421-.3428-.9043-.8682-1.0132-1.5918-.3438-2.1445,1.52-3.1846,1.52-5.3565h-.3618c-.2896,1.5196-1.5649,3.1309-3.04,2.6055v-.2168c1.6377-.2256,2.3706-1.6015,2.8232-3.1846,.4609-1.6005,1.583-2.4072,3.1846-2.8955,.5156-.1533,.7236-.4609,1.2304-.6503,1.1851-.4532,1.9903,.1445,3.2569,.1445,.896,0,1.3935,.2441,2.2441,.5058,.7236,.2266,.5064,1.1231,.5064,1.8819h0Z"/>
      <path class="cls-17" d="M64.805673,124.653375c-.6059-.2256-.5156-.8858-.9409-1.375-.3076-.3526-.769-.3985-.8686-.8692,1.0766-.3066,1.8095,1.1231,1.8095,2.2442h0Z"/>
      <path class="cls-15" d="M54.166073,126.174875c.7329,.4882,.6875,1.4472,.289,2.2431h-.289c.081-.8779-.3892-1.456,0-2.2431h0Z"/>
      <path class="cls-15" d="M55.323773,126.825175c.5156,.2168,1.2124,.5977,.9414,1.086-.2085,.3808-.561,.4433-.9414,.6513-.1172-.6611-.1719-1.0859,0-1.7373h0Z"/>
      <path class="cls-16" d="M53.369673,127.041975c.1719,.0459,.2622,.1094,.4341,.1446,0,.417-.1807,.6425-.3618,1.0136-.19-.0546-.2984-.1347-.5069-.1445-.0361-.4248,.1992-.6601,.4346-1.0137h0Z"/>
      <path class="cls-9" d="M61.403873,128.708075c.0634,.4697-.0635,.8681-.4341,1.1582-.0816-.4707-.0454-1.1582,.4341-1.1582h0Z"/>
      <path class="cls-10" d="M55.686073,130.009775c-.5342,.0186-.688-.4883-1.1587-.7236,.3623-.3985,1.0225,.209,1.1587,.7236h0Z"/>
      <path class="cls-16" d="M54.527373,129.938475c.1631,.1895,.2085,.4063,.145,.6504h-.2173c-.0268-.2441,0-.416,.0723-.6504h0Z"/>
      <path class="cls-15" d="M57.133373,130.516575c.6425-.208,1.728,.9415,1.1582,1.3028-.2261,.1445-.4073-.1719-.6514-.2891-.48-.2265-.8506,0-1.375-.0722,.063-.4883,.3975-.7872,.8682-.9415h0Z"/>
      <path class="cls-9" d="M57.133373,132.326175c.2534,.3262,.1992,.6885,.0722,1.085-.2348-.3516-.2622-.7051-.0722-1.085h0Z"/>
      <path class="cls-15" d="M67.773473,134.280275c.5703-.1719,.9228,.8516,.6514,1.375-.1446,.2813-.3345,.3897-.5069,.6524-.5786-.5254-.8955-1.8008-.1445-2.0274h0Z"/>
      <path class="cls-16" d="M74.287673,135.366275c.0542,.082,.1269,.1269,.2172,.1445,0,.2627-.0903,.4346-.2172,.6523h-.2168c-.0547-.3086,.0449-.5341,.2168-.7968h0Z"/>
      <path class="cls-16" d="M66.832573,135.510775c.0542,.2441,.063,.4082,0,.6523h-.2896c-.0088-.2715,.063-.5078,.2896-.6523h0Z"/>
      <path class="cls-16" d="M71.826673,137.538075c-.5605,.0723-.8955,.3516-1.4477,.2168,.0547-.4258,.4614-.5332,.7964-.7959,.3168,.0909,.6333,.2442,.6513,.5791h0Z"/>
      <path class="cls-9" d="M68.207573,138.768575c.3076,.0449,.353,.5156,.2173,.7959-.2622-.1631-.3526-.5166-.2173-.7959h0Z"/>
      <line class="cls-4" x1="47.351573" y1="67.958077" x2="48.101573" y2="52.431678"/>
      <path class="cls-11" d="M47.353073,50.748578c0-.9414,.3779-1.7056,.8447-1.7056s.8447,.7642,.8447,1.7056-.3779,1.7051-.8447,1.7051-.8447-.7637-.8447-1.7051h0Z"/>
    </g>
  </g>
  <g id="Das_Land_Steiermark" data-name="Das Land Steiermark">
    <path class="cls-15" d="M131.42877,109.498075c-1.4849-.3066-4.25-.8203-7.5786-.8203-6.8106,0-11.163597,3.0732-11.163597,8.6553,0,10.7539,16.437997,9.4726,16.437997,18.1269,0,4.3535-2.6631,6.5039-7.169,6.5039-3.4824,0-7.0161-1.331-8.910597-2.2529v3.5342c.8706,.2041,4.608897,1.0234,8.193297,1.0234,6.606,0,12.4434-2.8164,12.4434-9.8828,0-11.2149-16.8984-10.1914-16.8984-18.2822,0-3.1231,2.5092-5.1211,6.1963-5.1211,3.5844,0,6.861803,1.3828,8.4492,2.0996v-3.584h0Z"/>
    <path class="cls-15" d="M151.091869,142.067375c-.6148,.1016-1.2803,.2032-1.9458,.2032-2.5093,0-4.3526-.6641-4.3526-3.7373v-16.8995h6.2984v-1.7402h-6.3497v-7.7842l-3.892,3.4317v4.3525h-3.9429v1.7402h3.9429v15.4141c0,4.8135,.4609,7.2207,7.3227,7.2207,.9732,0,1.9458-.1025,2.919-.3066v-1.8946h0Z"/>
    <path class="cls-10" d="M172.841373,141.657275c-1.127,.3066-2.407304,.6133-3.635804,.6133-7.1181,0-10.7026-7.2188-10.7026-12.1875v-1.0743h14.9521v-.7685c0-6.0938-3.789-8.9102-8.6025-8.9102-7.4761,0-10.293,4.3526-10.293,11.7266,0,8.5517,4.4043,13.2119,11.9317,13.2119,3.1748,0,5.7353-.666,6.350104-.9219v-1.6894h0Zm-3.840904-14.3907h-10.4462c.1533-1.7402,.9726-5.9394,5.6328-5.9394,3.0727,0,4.8134,2.6113,4.8134,5.4785v.4609h0Z"/>
    <path class="cls-10" d="M179.696769,143.706075h3.9429v-24.376l-7.7837,1.2285v.8711c1.4336,.1534,3.8408,.3077,3.8408,3.3799v18.8965h0Zm1.7925-29.292c1.5357,0,2.8672-1.1777,2.8672-2.8672,0-1.5879-1.3315-2.8691-2.8672-2.8691-1.6387,0-2.9194,1.2812-2.9194,2.8691,0,1.586,1.2807,2.8672,2.9194,2.8672h0Z"/>
    <path class="cls-10" d="M207.958568,141.657275c-1.127,.3066-2.4063,.6133-3.6358,.6133-7.1181,0-10.7021-7.2188-10.7021-12.1875v-1.0743h14.9531v-.7685c0-6.0938-3.7891-8.9102-8.6035-8.9102-7.4766,0-10.293,4.3526-10.293,11.7266,0,8.5517,4.4043,13.2119,11.9316,13.2119,3.1758,0,5.7354-.666,6.3497-.9219v-1.6894h0Zm-3.8399-14.3907h-10.447295c.154295-1.7402,.973695-5.9394,5.632895-5.9394,3.0722,0,4.8144,2.6113,4.8144,5.4785v.4609h0Z"/>
    <path class="cls-15" d="M214.609868,143.706075h3.9424v-12.291c0-3.1231,.7168-8.1426,5.6836-8.1426,.564505,0,1.127,.2051,1.6904,.3594v-4.251c-.1533-.0508-.3076-.0508-.460895-.0508-4.864305,0-6.145505,3.9424-6.809605,6.0938h-.1035v-6.0938l-7.835,1.2285v.8711c1.4854,.1534,3.8926,.3077,3.8926,3.5332v18.7432h0Z"/>
    <path class="cls-15" d="M231.353067,143.706075h3.943305v-12.1885c0-4.251,3.021494-9.6787,6.298894-9.6787,3.3789,0,3.3789,2.5606,3.3789,5.3262v16.541h3.9433v-12.3936c0-4.7626,3.5332-9.4736,6.1973-9.4736,3.4805,0,3.4805,2.6641,3.4805,6.4531v15.4141h3.9433v-16.2344c0-4.0449,0-8.1416-6.0937-8.1416-4.6074,0-6.709,4.4043-7.4766,6.1446h-.1015c0-3.6358-1.2813-6.1446-6.0938-6.1446-4.1484,0-6.7598,4.3526-7.375,6.1446h-.101594v-6.1446l-7.834905,1.2285v.8711c1.4853,.1534,3.8916,.3077,3.8916,3.3799v18.8965h0Z"/>
    <path class="cls-10" d="M282.046373,143.706075h3.943393v-16.0293c0-4.7109-1.2305-8.3467-8.0918-8.3467-6.7598,0-8.7558,3.4824-8.9609,6.503h4.5566c.1035-1.3301,.3594-4.5059,4.25-4.5059,4.302707,0,4.302707,3.6875,4.302707,7.2715v1.998c-3.33,.1016-13.416,.3067-13.416,7.6289,0,3.5332,2.457094,6.043,6.144593,6.043,3.9941,0,6.0937-2.458,7.271407-3.8398v3.2773h0Zm0-8.502c0,2.5606-1.691407,6.5547-5.171807,6.5547-2.867193,0-3.8926-2.4062-3.8926-4.1982,0-5.0186,6.9121-5.3252,9.064407-5.3779v3.0214h0Z"/>
    <path class="cls-15" d="M294.282766,143.706075h3.9414v-12.291c0-3.1231,.7168-8.1426,5.6836-8.1426,.5644,0,1.1269,.2051,1.6914,.3594v-4.251c-.1543-.0508-.3067-.0508-.461-.0508-4.8652,0-6.1464,3.9424-6.8125,6.0938h-.1015v-6.0938l-7.834,1.2285v.8711c1.4844,.1534,3.8926,.3077,3.8926,3.5332v18.7432h0Z"/>
    <path class="cls-15" d="M310.308165,143.706075h3.9433v-12.4961h.1016l9.986308,12.4961h4.761692l-11.2148-13.9297,9.4746-9.8828h-3.4824l-9.627,10.0371v-22.0713l-7.9375,1.126v.8701c1.484407,.1035,3.9942,.2061,3.9942,3.3809v30.4697h0Z"/>
    <path class="cls-10" d="M126.94877,79.749977h5.9482c11.5118,0,20.434099-2.2036,20.434099-18.5063,0-16.3037-8.5371-18.562-20.213899-18.562h-11.6767v.9365c4.792,.936,5.5083,1.1568,5.5083,5.3423v30.789499h0Zm4.7915-30.789499c0-3.579603,.4404-4.1309,3.7456-4.1309,9.8589,0,12.4478,6.9405,12.4478,16.4141,0,11.5107-4.406297,16.3584-13.2745,16.3584-2.9189,0-2.9189-1.377-2.9189-4.076203v-24.565397h0Z"/>
    <path class="cls-10" d="M173.272469,79.749977h4.2417v-17.2402c0-5.0674-1.321796-8.9775-8.7026-8.9775-7.2705,0-9.4185,3.7451-9.6387,6.9951h4.9019c.1098-1.4321,.3857-4.8467,4.5717-4.8467,4.626,0,4.626,3.9653,4.626,7.8208v2.1485c-3.5796,.1098-14.4302,.33-14.4302,8.2065,0,3.8008,2.6436,6.498997,6.6094,6.498997,4.2959,0,6.5542-2.642997,7.8208-4.130397v3.5249h0Zm0-9.143c0,2.7534-1.8174,7.0503-5.5625,7.0503-3.0845,0-4.186-2.589403-4.186-4.5171,0-5.398,7.4355-5.7276,9.7485-5.7827v3.2495h0Z"/>
    <path class="cls-15" d="M199.050373,54.468778c-.937505-.2207-3.359405-.9365-6.113305-.9365-6.4453,0-8.9785,2.974597-8.9785,7.2153,0,7.271,12.9433,7.1602,12.9433,12.778297,0,3.470203-2.4238,4.681703-5.728495,4.681703-3.414104,0-6.774404-2.148-7.325204-2.4234v3.4698c1.3779,.440897,3.5254,1.101497,7.1055,1.101497,5.6181,0,9.803704-2.367697,9.803704-7.876397,0-8.647-12.943404-7.7657-12.943404-13.2735,0-2.6435,2.2032-3.5249,4.5723-3.5249,3.084,0,5.7822,1.6519,6.664105,2.0923v-3.3042h0Z"/>
    <path class="cls-15" d="M223.882373,79.749977h20.378894l.2754-8.1518h-1.707c-.4415,3.6904-.6075,6.0039-4.738294,6.0039h-4.901406c-4.516594,0-4.516594-.3306-4.516594-4.8477v-30.072699l-10.298805,1.2666v.936c3.799805,.4414,5.507805,.2754,5.507805,4.0762v30.789499h0Z"/>
    <path class="cls-10" d="M262.054267,79.749977h4.2402v-17.2402c0-5.0674-1.3203-8.9775-8.7012-8.9775-7.2715,0-9.417894,3.7451-9.6386,6.9951h4.9023c.109406-1.4321,.3848-4.8467,4.5703-4.8467,4.627,0,4.627,3.9653,4.627,7.8208v2.1485c-3.5801,.1098-14.4297,.33-14.4297,8.2065,0,3.8008,2.6426,6.498997,6.6074,6.498997,4.2969,0,6.5547-2.642997,7.8223-4.130397v3.5249h0Zm0-9.143c0,2.7534-1.8184,7.0503-5.5625,7.0503-3.086,0-4.1856-2.589403-4.1856-4.5171,0-5.398,7.4356-5.7276,9.7481-5.7827v3.2495h0Z"/>
    <path class="cls-15" d="M275.823766,79.749977h4.2422v-13.1088c0-3.6348,3.7441-10.4097,7.7656-10.4097,3.8555,0,3.8555,2.753397,3.8555,5.728v17.7905h4.2422v-19.6084c0-3.9101-1.212893-6.6093-6.5547-6.6093-5.5078,0-8.3731,5.1772-9.199193,7.3257h-.109407v-7.3257l-8.4278,1.3218v.9365c1.5977,.1655,4.1856,.3301,4.1856,3.6352v20.324199h0Z"/>
    <path class="cls-10" d="M320.157765,79.749977h4.2422V41.194875l-8.4278,1.211403v.9365c3.25,.0547,4.1856,1.0464,4.1856,4.6265v9.914h-.109392c-.880908-1.707-3.195308-4.351-7.214808-4.351-6.8848,0-9.9688,6.2788-9.9688,13.4389,0,7.7115,3.5781,13.384297,10.2422,13.384297,3.9121,0,6.0039-2.533697,6.941408-4.240697h.109392v3.6352h0Zm0-11.7314c0,4.2407-1.486392,10.189-6.5547,10.189-5.1211,0-6.056692-7.4356-6.056692-11.2364,0-4.4614,1.156293-11.2905,6.277392-11.2905,5.0117,0,6.334,6.0581,6.334,10.1343v2.2036h0Z"/>
    <polyline class="cls-3" points="113.225173 38.948778 113.225173 94.861875 336.292465 94.861875 336.292465 156.205075 41.124073 156.205075"/>
  </g>
</svg>