<?xml version="1.0" encoding="UTF-8"?>
<svg id="Layer_1" data-name="Layer 1" xmlns="http://www.w3.org/2000/svg" viewBox="0 0 213.505087 262.498981">
  <defs>
    <style>
      .cls-1 {
        fill: #fff;
      }
    </style>
  </defs>
  <path class="cls-1" d="M27.110205,.000899C12.165428,.000899,0,12.175074,0,27.119289V235.380559c0,14.94428,12.165428,27.118423,27.110205,27.118423H186.361088c14.944769,0,27.110205-12.173694,27.110205-27.118423V64.131828s.426438-5.014469-1.750367-9.894115c-2.04049-4.573987-5.366161-7.757512-5.366161-7.757512-.008222-.011235-.0165-.02247-.024826-.033641L166.81922,7.691867c-.021685-.022117-.0436-.043978-.065742-.065645,0,0-3.373289-3.212159-8.37384-5.357943C152.491732-.258312,146.422879,.00841,146.422879,.00841l.090393-.00841L27.110205,.000899Z"/>
  <path d="M27.110205,8.908858h119.403237c.03013,.000321,.060263,.000321,.090393,0,0,0,4.774649,.046289,8.26701,1.544928,3.361334,1.4424,5.744744,3.625837,5.76061,3.640475,.000052,.000032,.016451,.016821,.016451,.016821l39.412102,38.664265s2.374499,2.506913,3.525395,5.086759c.928922,2.082289,.986124,5.892094,.986124,5.892094-.004141,.062917-.006946,.125898-.008414,.188943V235.38088c0,10.164914-8.037344,18.210432-18.202214,18.210432H27.110205c-10.164866,0-18.202214-8.045068-18.202214-18.210432V27.119675c0-10.165364,8.037348-18.210464,18.202214-18.210464v-.000353Z"/>
  <path class="cls-1" d="M53.302314,156.290166c-6.128971-6.128995,.502123-14.55105,18.498035-23.494351l11.323298-5.627201,4.411318-9.651886c2.426233-5.308508,6.047347-13.970289,8.046946-19.248302l3.635668-9.59648-2.505376-7.101894c-3.08058-8.732466-4.179108-21.855176-2.22457-26.573871,2.647465-6.391512,11.319301-5.735765,14.752464,1.115618,2.681291,5.350881,2.407173,15.041159-.771188,27.262104l-2.605682,10.01905,2.295171,3.896283c1.262365,2.142959,4.949662,7.231258,8.194038,11.30724l6.097625,7.584876,7.587627-.990169c24.10458-3.14539,32.360648,2.200483,32.360648,9.865482,0,9.673842-18.927242,10.472308-34.82134-.690993-3.576204-2.511793-6.032076-5.006893-6.032076-5.006893,0,0-9.957102,2.027076-14.859517,3.348458-5.060348,1.363946-7.584965,2.218138-14.997542,4.720172,0,0-2.600803,3.776934-4.295568,6.522674-6.305222,10.215312-13.667233,18.681088-18.924878,21.762277-5.886661,3.449831-12.057916,3.684998-15.165098,.577807Zm9.618477-3.436156c3.4452-2.129284,10.418355-10.376649,15.245365-18.031183l1.954329-3.099166-8.898658,4.474155c-13.743893,6.910319-20.03144,13.42317-16.761949,17.36266,1.836681,2.213066,4.033865,2.02958,8.460913-.70653v.000064Zm89.274358-25.058732c3.369716-2.360279,2.880556-7.116596-.929092-9.034274-2.964832-1.492412-5.35445-1.799099-13.056424-1.6854-4.732977,.322737-12.34371,1.276569-13.633593,1.566757,0,0,4.181026,2.889614,6.037274,3.951753,2.471085,1.411326,8.476005,4.031233,12.860183,5.373159,4.324642,1.323692,6.82619,1.18412,8.721653-.172058v.000064Zm-35.896067-14.919434c-2.039359-2.143793-5.507109-6.618205-7.706055-9.943101-2.875928-3.771669-4.318078-6.432665-4.318078-6.432665,0,0-2.102051,6.761116-3.826605,10.829778l-5.380337,13.298813-1.559919,3.016539s8.293092-2.719161,12.512538-3.821296c4.469031-1.167299,13.539072-2.950862,13.539072-2.950862l-3.260615-3.997207Zm-11.567919-46.390351c.520167-4.36527,.740934-8.723991-.661581-10.922035-3.89022-4.25279-8.585627-.706337-7.790287,9.404392,.267593,3.401295,1.11258,9.215705,2.242241,12.799459l2.053956,6.515805,1.445602-4.90751c.795083-2.699131,2.014617-8.499738,2.710069-12.890175v.000064Z"/>
  <path class="cls-1" d="M63.725196,184.67219h9.950596c3.179481,0,5.760362,.304248,7.742634,.912615,1.982272,.58885,3.650518,1.913569,5.004734,3.974351,1.354228,2.041136,2.031342,4.504265,2.031342,7.389385,0,2.649567-.549543,4.926192-1.648621,6.830003-1.099082,1.903747-2.580877,3.277644-4.445389,4.121564-1.844891,.843984-4.69072,1.265912-8.537488,1.265912h-3.444446v15.691385h-6.653355l-.000008-40.185214Zm6.653355,5.151923v14.013304h3.297241c2.943968,0,4.975306-.549559,6.094005-1.648677,1.138337-1.099118,1.707501-2.88512,1.707501-5.358007,0-1.844875-.372902-3.336516-1.118707-4.474861-.745797-1.15799-1.570111-1.86452-2.472927-2.119654-.883186-.274908-2.28648-.412362-4.209872-.412362l-3.297241,.000257Zm23.168989-5.151923h9.037978c4.376698,0,7.870201,.775225,10.480506,2.325739,2.629942,1.550514,4.612214,3.856607,5.946819,6.918344,1.354218,3.061737,2.031326,6.457125,2.031326,10.186101,0,3.925302-.608421,7.428612-1.825261,10.50993-1.197203,3.061737-3.042085,5.534688-5.534646,7.418789-2.472931,1.884165-6.005689,2.826248-10.59827,2.826248h-9.538451v-40.18515Zm6.653371,5.328539v29.528008h2.767312c3.86641,.000064,6.672992-1.334671,8.419744-4.003819,1.746752-2.688794,2.620127-6.270686,2.620127-10.745418,0-9.852449-3.679958-14.778706-11.039867-14.778706l-2.767316-.000064Zm27.231657-5.328539h22.315253v5.328539h-15.661874v12.011394h12.541283v5.328603h-12.541283v17.516614h-6.653371l-.000008-40.18515Z"/>
</svg>