<?xml version="1.0" encoding="UTF-8"?>
<svg id="Layer_2" data-name="Layer 2" xmlns="http://www.w3.org/2000/svg" viewBox="0 0 515 339.379634">
  <defs>
    <style>
      .cls-1 {
        fill: none;
        stroke: #fff;
        stroke-miterlimit: 10;
        stroke-width: 3px;
        transition: fill 0.3s;
      }

      svg:hover .cls-1 {
        fill: #fff;
      }
    </style>
  </defs>
  <g id="Layer_1-2" data-name="Layer 1">
    <path class="cls-1" d="M428.22345,11.528493c-29.593689,9.63739-58.651917,18.788086-74.422241,23.120056-4.185913,1.119507-8.469238,1.800903-12.752563,2.044312l-46.191467,2.287659c-.97345,.389343-56.412964-1.362915-80.457825-2.141663-7.301086-.243347-14.553467,.194702-21.757202,1.216858-32.233459,4.669312-127.637878,18.512756-170.222412,24.609558-2.558533,5.918762-4.902832,11.950928-7.017395,18.091064,14.385925-.842224,36.514221-2.464294,49.373596-4.540344,6.863037-1.119507,13.726074-1.800964,20.686401-1.995667,20.735046-.632751,65.417603-1.995605,67.802612-1.898254,11.633057,.584106,140.862061,7.544434,152.495117,7.59314,38.744324,.048645,48.86853-1.995667,84.935791-2.093018,18.155334-.048645,28.376831-4.137268,35.483215-3.942566-9.491394,4.818726-20.004883,9.978149-31.19989,15.38092-17.619934,8.420593-48.86853,32.660156-79.143616,57.727173-39.523132-5.986877-73.789551-11.195007-88.294312-13.43396-5.110779-.778809-10.270203-1.314209-15.429626-1.557556l-23.460754-1.168213c-10.367554-.486694-20.686401-1.411499-30.956604-2.774414-38.652405-5.223267-133.072327-6.514954-152.609131-6.729736-2.345581,13.92627-3.585144,28.228149-3.585144,42.821411,0,47.516541,12.961304,91.999146,35.518127,130.13385l32.819885-8.18158c27.841431-6.960388,56.46167-10.124146,85.130554-9.442749,27.062622,.632751,59.090027,1.216858,70.723022,.827454,4.478027-.145996,9.0047,.194702,13.434021,1.022156l36.067261,6.71698c1.654968,.291992,5.062134,.681396,5.062134,.681396l3.845215,1.022156c.097351,.048645,.194702,.097351,.194702,.194702,.145996,.87616,.778809,5.013428,.827454,6.327637l3.455872,41.567444,5.451416,.145996c1.94696,.097351,3.845276,.243347,5.74353,.43811l11.681702,1.265503c1.022156,.097351,2.092957,.194702,3.115112,.291992,1.022156,.146057,2.093018,.243408,3.115173,.292053l4.818665,.340759c3.553162-18.885437,2.579712-12.168457,4.088623-38.111633,1.265503-21.465088-.778748-27.208679-.97345-28.912231-.778809-6.327576-7.933838-13.43396-17.327881-19.712891-8.371948-5.548828-17.911987-9.199402-27.792786-11.000305-5.84082-1.070801-11.535645-2.482361-17.181824-4.039917,2.287659-5.354126,5.694824-10.854248,10.902954-14.894165,13.093262-10.270142,29.642334-23.266052,45.266663-35.53186,19.323486,1.265503,54.612,.730103,71.793884,.389343,6.71698-.145996,13.43396,.194702,20.102295,1.070862l99.644287,12.681152c1.617676-11.631042,2.473389-23.505859,2.473389-35.582214,0-61.638123-21.788879-118.184204-58.07782-162.367798-8.415222,3.113831-20.71637,7.686279-27.19873,9.751038Zm-171.477966,186.226013c-10.124146,8.955994-17.376526,24.872314-20.15094,31.005249-2.38501-.486755-4.818665-.973511-7.25238-1.41156l-117.157898-16.889832,64.6875-17.084473c13.580017-3.601868,27.500732-5.597534,41.518799-6.035583l52.080933-1.654907c-4.964722,4.33197-9.588745,8.420593-13.726013,12.071106Zm234.899902-88.343018l.973511,7.349792c.145996,2.725708,.584106,5.402771,1.314209,8.031189l13.580078,49.987976c-2.287842,.486755-77.683533-10.708252-147.043762-21.12439,5.305481-4.039978,8.761292-6.570984,9.637451-7.009033,4.137268-2.141663,21.659851-11.487061,45.704712-24.142273,15.526978-8.177185,32.903503-24.434204,47.749023-32.027344,10.950691-5.638462,24.736423-11.96535,33.109953-14.587318,.466416-.146047,.908103,.281516,.771359,.750745l-3.213758,11.027779c-1.038556,3.563731-1.789706,7.213168-2.090136,10.912968-.001976,.024337-.003938,.048674-.005885,.073011-.194702,2.774414-.730103,4.234619-.486755,10.756897Z"/>
  </g>
</svg>