<?xml version="1.0" encoding="UTF-8"?>
<svg id="Layer_1" data-name="Layer 1" xmlns="http://www.w3.org/2000/svg" viewBox="0 0 512 512">
  <defs>
    <style>
      .cls-1 {
        fill: #fff;
      }

      .cls-2 {
        fill: none;
        stroke: #fff;
        stroke-miterlimit: 10;
        stroke-width: 5px;
      }
    </style>
  </defs>
  <circle class="cls-2" cx="256" cy="256" r="256"/>
  <path class="cls-1" d="M321.003853,429.643864c3.553183-18.885437,2.579707-12.168455,4.088613-38.111596,1.265507-21.465143-.778769-27.208678-.973476-28.912262-.778769-6.327597-7.933827-13.433963-17.327869-19.712898-8.371903-5.548828-17.91196-9.199364-27.79274-11.000272-5.840859-1.07083-11.535702-2.482353-17.181853-4.039921,2.287676-5.35412,5.694843-10.854256,10.902948-14.894178,13.09327-10.270164,29.642369-23.266081,45.266654-35.53189,19.323513,1.265522,54.612034,.730107,71.793887,.389385,6.716981-.146016,13.433963,.194692,20.102282,1.07083l102.117701,12.995916V82.356136l-17.619929,1.995626c-11.876424,1.314192-23.655465,3.79656-35.045152,7.447096-1.849599,.584084-3.601875,1.168172-5.062089,1.703584-8.420565,3.115122-20.978405,7.787811-27.549371,9.880787-29.593678,9.637418-58.651955,18.788098-74.422255,23.120065-4.185937,1.119499-8.469257,1.80093-12.752547,2.044299l-46.191469,2.287668c-.973476,.389392-56.412956-1.362868-80.457821-2.141645-7.301073-.243369-14.55347,.194692-21.757204,1.216846C149.477309,135.946013,2.238996,157.313818,0,157.459841v15.770323c0,.243369,43.076332-1.898276,63.275968-5.159428,6.863012-1.119492,13.726016-1.800937,20.686374-1.99563,20.735051-.632754,65.417613-1.99563,67.802627-1.898276,11.63304,.584092,140.862022,7.544442,152.495077,7.593119,38.74435,.048677,48.868529-1.99563,84.935819-2.092968,18.155329-.048677,28.376832-4.137275,35.483228-3.942583-9.491395,4.818705-20.004929,9.978133-31.199908,15.380931-17.619929,8.420565-48.868529,32.660137-79.143622,57.727155-39.523149-5.986874-73.789516-11.194979-88.294309-13.433978-5.110751-.778784-10.270179-1.314199-15.429607-1.557568l-23.460788-1.168169c-10.367518-.486738-20.686374-1.411538-30.956553-2.774414C112.971943,214.067496,0,213.142697,0,213.142697v181.8454l68.338042-17.035838c27.841424-6.960351,56.461633-10.124149,85.130511-9.442733,27.062648,.632754,59.090016,1.216846,70.723057,.827461,4.477998-.146016,9.004657,.194707,13.433978,1.022138l36.067305,6.716981c1.654922,.292031,5.062089,.681445,5.062089,.681445l3.845244,1.022138c.097354,.048662,.194707,.097354,.194707,.194707,.146016,.876123,.778769,5.013398,.827461,6.327597l3.455829,41.567455,5.451444,.146016c1.946953,.097354,3.845244,.243369,5.743505,.438076l11.681717,1.265507c1.022138,.097354,2.092968,.194707,3.115136,.292031,1.022138,.146016,2.092968,.243369,3.115136,.292031l4.818691,.340752ZM492.48172,156.389018l.048662,.389392-.340723-.340715c.194707,0,.292061-.048677,.292061-.048677ZM227.842162,319.202951l-117.157887-16.889822,64.687498-17.084499c13.579993-3.60186,27.500709-5.597489,41.518764-6.035551l52.080989-1.654907c-4.964736,4.331967-9.588749,8.420565-13.726024,12.071102-10.124149,8.955995-17.37656,24.872311-20.150959,31.00523-2.384999-.486738-4.818691-.973476-7.252382-1.411553Zm131.127272-73.692163c5.305458-4.039921,8.761288-6.570966,9.637411-7.009027,4.137275-2.141645,21.659851-11.487025,45.70473-24.142218,15.526961-8.177196,32.903491-24.434264,47.749007-32.027383,11.438348-5.889535,23.363434-6.376274,31.589322-8.761288l-1.995615,9.637411c-.486738,2.433691-.827461,4.867382-1.022138,7.301073h0c-.194707,2.774414-.730107,4.234628-.486738,10.756918l.973476,7.34975c.146016,2.725737,.584092,5.402797,1.314199,8.031181l13.580008,49.988021c-2.287705,.486738-77.683467-10.708241-147.043662-21.124436Z"/>
</svg>