<?xml version="1.0" encoding="utf-8"?>
<!-- Generator: Adobe Illustrator 27.0.0, SVG Export Plug-In . SVG Version: 6.00 Build 0)  -->
<svg version="1.1" id="Layer_1" xmlns="http://www.w3.org/2000/svg" xmlns:xlink="http://www.w3.org/1999/xlink" x="0px" y="0px"
	 viewBox="0 0 1000 1000" style="enable-background:new 0 0 1000 1000;" xml:space="preserve">
<style type="text/css">
	.st0{fill:#F2F2F2;}
</style>
<path class="st0" d="M832.3,203c-57.6,18.8-114.2,36.6-144.8,45c-8.1,2.2-16.5,3.5-24.8,4l-89.9,4.5c-1.9,0.8-109.8-2.7-156.6-4.2
	c-14.2-0.5-28.3,0.4-42.3,2.4c-62.7,9.1-248.4,36-331.3,47.9c-5,11.5-9.5,23.3-13.7,35.2c28-1.6,71.1-4.8,96.1-8.8
	c13.4-2.2,26.7-3.5,40.3-3.9c40.4-1.2,127.3-3.9,132-3.7c22.6,1.1,274.2,14.7,296.8,14.8c75.4,0.1,95.1-3.9,165.3-4.1
	c35.3-0.1,55.2-8.1,69.1-7.7c-18.5,9.4-38.9,19.4-60.7,29.9c-34.3,16.4-95.1,63.6-154,112.4C536.9,455,470.2,444.9,442,440.6
	c-9.9-1.5-20-2.6-30-3l-45.7-2.3c-20.2-0.9-40.3-2.7-60.3-5.4c-75.2-10.2-259-12.7-296.4-13c-19.7,115.9,2.3,235,62.1,336.2
	l63.3-15.6c54.2-13.5,109.9-19.7,165.7-18.4c52.7,1.2,115,2.4,137.6,1.6c8.7-0.3,17.5,0.4,26.1,2l70.2,13.1c3.2,0.6,9.9,1.3,9.9,1.3
	l7.5,2c0.2,0.1,0.4,0.2,0.4,0.4c0.3,1.7,1.5,9.8,1.6,12.3l6.7,80.9l10.6,0.3c3.8,0.2,7.5,0.5,11.2,0.9l22.7,2.5
	c2,0.2,4.1,0.4,6.1,0.6c2,0.3,4.1,0.5,6.1,0.6l9.4,0.7c6.9-36.8,5-23.7,8-74.2c2.5-41.8-1.5-53-1.9-56.3
	c-1.5-12.3-15.4-26.1-33.7-38.4c-16.3-10.8-34.9-17.9-54.1-21.4c-11.4-2.1-22.5-4.8-33.4-7.9c4.5-10.4,11.1-21.1,21.2-29
	c25.5-20,57.7-45.3,88.1-69.2c37.6,2.5,106.3,1.4,139.7,0.8c13.1-0.3,26.1,0.4,39.1,2.1l193.3,24.6
	c19.3-137.7-19.9-277.3-108.1-384.8C868.8,190,844.9,198.9,832.3,203L832.3,203z M498.5,565.4c-19.7,17.4-33.8,48.4-39.2,60.3
	c-4.6-0.9-9.4-1.9-14.1-2.7l-228-32.9l125.9-33.3c26.4-7,53.5-10.9,80.8-11.7l101.4-3.2C515.6,550.4,506.6,558.3,498.5,565.4
	L498.5,565.4z M955.7,393.5l1.9,14.3c0.3,5.3,1.1,10.5,2.6,15.6l7.4,27.3c5.5,20.2,13.2,39.7,23,58.2l7,13.3c0.1,0.1,0,0.3-0.2,0.3
	c-3.2,0-27.2-3.4-48.9-6.4c-53.1-7.3-153.5-22.3-248.1-36.5c10.3-7.9,17.1-12.8,18.8-13.6c8.1-4.2,42.2-22.4,89-47
	c30.2-15.9,64-47.6,92.9-62.3c21.3-11,48.1-23.3,64.4-28.4c0.9-0.3,1.8,0.5,1.5,1.5l-6.7,22.9c-1.9,6.4-3.1,13.1-3.6,19.8v0.1
	C956.3,377.9,955.2,380.8,955.7,393.5L955.7,393.5z"/>
</svg>
