<?xml version="1.0" encoding="utf-8"?>
<!-- Generator: Adobe Illustrator 27.0.0, SVG Export Plug-In . SVG Version: 6.00 Build 0)  -->
<svg version="1.1" id="Layer_1" xmlns="http://www.w3.org/2000/svg" xmlns:xlink="http://www.w3.org/1999/xlink" x="0px" y="0px"
	 viewBox="0 0 75 33.5" style="enable-background:new 0 0 75 33.5;" xml:space="preserve">
<style type="text/css">
	.st0{fill:#FFFFFF;}
</style>
<g id="Layer_2_00000152263247155166170260000004047163581447436417_">
	<g id="Orange">
		<path class="st0" d="M75,23.6c-0.3,5.6-5,10-10.6,9.9H38.8c-1.2,0-2.1-1-2.1-2.1V3.9c0-1,0.5-1.9,1.4-2.2c0,0,2.3-1.6,7.3-1.6
			c3,0,6,0.8,8.6,2.4c4.1,2.4,7,6.4,8,11.1c0.9-0.2,1.8-0.4,2.7-0.4C70.4,13,75,17.6,75,23.2C75,23.4,75,23.5,75,23.6z"/>
		<path class="st0" d="M33.5,5.6c0.1-0.5-0.3-0.9-0.7-0.9S31.9,5,31.9,5.4c0,0.1,0,0.1,0,0.2c-0.7,9.2-1.2,17.9,0,27.1
			c0.1,0.5,0.5,0.8,0.9,0.7c0.4,0,0.7-0.3,0.7-0.7C34.8,23.5,34.3,14.9,33.5,5.6z"/>
		<path class="st0" d="M28.4,8.8c-0.1-0.5-0.5-0.8-1-0.8c-0.4,0-0.7,0.4-0.8,0.8c-0.9,8-0.9,16,0,24c0.1,0.5,0.5,0.8,1,0.7
			c0.4-0.1,0.7-0.4,0.7-0.7C29.4,24.8,29.4,16.8,28.4,8.8z"/>
		<path class="st0" d="M23.2,8c-0.1-0.5-0.5-0.8-0.9-0.7c-0.4,0-0.7,0.4-0.7,0.7c-0.8,8.4-1.2,16.3,0,24.7c0,0.5,0.4,0.8,0.8,0.8
			c0.5,0,0.8-0.4,0.8-0.8C24.4,24.2,24,16.5,23.2,8z"/>
		<path class="st0" d="M18,10.4c0-0.5-0.4-0.9-0.9-0.9c-0.5,0-0.9,0.4-0.9,0.9c-1,7.4-1,14.9,0,22.4c0.1,0.5,0.5,0.8,0.9,0.8
			c0.4,0,0.7-0.4,0.8-0.8C19,25.4,19,17.8,18,10.4z"/>
		<path class="st0" d="M12.8,16c0-0.5-0.4-0.8-0.9-0.8c-0.5,0-0.8,0.4-0.8,0.8c-1.2,5.8-0.6,11,0.1,16.8c0.1,0.4,0.5,0.7,0.9,0.7
			c0.3-0.1,0.6-0.3,0.7-0.7C13.5,26.9,14.1,21.8,12.8,16z"/>
		<path class="st0" d="M7.6,15.1c-0.1-0.5-0.5-0.8-1-0.8c-0.4,0-0.7,0.4-0.8,0.8C4.8,21,5.1,26.2,5.9,32c0.1,0.9,1.6,0.9,1.7,0
			C8.4,26.1,8.8,21.1,7.6,15.1z"/>
		<path class="st0" d="M2.4,18c-0.1-0.5-0.5-0.8-1-0.8c-0.4,0-0.7,0.4-0.8,0.8c-1,4-0.7,7.2,0.1,11.2c0,0.5,0.5,0.8,0.9,0.7
			c0.4,0,0.7-0.3,0.7-0.7C3.2,25.1,3.7,21.9,2.4,18z"/>
	</g>
</g>
</svg>
