<?xml version="1.0" encoding="UTF-8"?>
<svg id="Layer_2" data-name="Layer 2" xmlns="http://www.w3.org/2000/svg" viewBox="0 0 121.399994 84.799988">
  <defs>
    <style>
      .cls-1 {
        fill: #fff;
      }
    </style>
  </defs>
  <g id="Layer_1-2" data-name="Layer 1">
    <path class="cls-1" d="M118.899994,13.199997c-1.399994-5.199997-5.5-9.300003-10.699997-10.699997C98.699997,0,60.699997,0,60.699997,0c0,0-38,0-47.5,2.5C8,3.900002,3.899994,8,2.5,13.199997,0,22.699997,0,42.399994,0,42.399994c0,0,0,19.800003,2.5,29.199997,1.400002,5.199997,5.5,9.300003,10.699997,10.699997,9.5,2.5,47.5,2.5,47.5,2.5,0,0,38,0,47.5-2.5,5.199997-1.399994,9.300003-5.5,10.699997-10.699997,2.5-9.5,2.5-29.199997,2.5-29.199997,0,0,0-19.699997-2.5-29.199997ZM48.5,60.699997V24.299995l31.600006,18.200005-31.600006,18.199997Z"/>
  </g>
</svg>